<svg xmlns="http://www.w3.org/2000/svg" version="1.1" xmlns:xlink="http://www.w3.org/1999/xlink" xmlns:svgjs="http://svgjs.dev/svgjs" viewBox="0 0 4.280905581186382 1.3619485656964663"><g transform="matrix(1,0,0,1,1.4488804128281296,0.4916432281607332)"><g><path d=" M 0.197021484375 0.3134765625 Q 0.2080078125 0.29150390625 0.2252197265625 0.2589111328125 Q 0.242431640625 0.226318359375 0.2611083984375 0.193359375 Q 0.27978515625 0.160400390625 0.2977294921875 0.131103515625 Q 0.315673828125 0.101806640625 0.328125 0.08642578125 Q 0.349365234375 0.060791015625 0.3720703125 0.0498046875 Q 0.394775390625 0.038818359375 0.413818359375 0.038818359375 Q 0.432861328125 0.038818359375 0.4464111328125 0.046875 Q 0.4599609375 0.054931640625 0.46875 0.0684814453125 Q 0.4775390625 0.08203125 0.48193359375 0.0999755859375 Q 0.486328125 0.117919921875 0.486328125 0.138427734375 Q 0.486328125 0.150146484375 0.4852294921875 0.169189453125 Q 0.484130859375 0.188232421875 0.4830322265625 0.210205078125 Q 0.48193359375 0.232177734375 0.4808349609375 0.255615234375 Q 0.479736328125 0.279052734375 0.47900390625 0.299560546875 Q 0.489990234375 0.277587890625 0.50390625 0.2508544921875 Q 0.517822265625 0.22412109375 0.5321044921875 0.19775390625 Q 0.54638671875 0.17138671875 0.5595703125 0.1483154296875 Q 0.57275390625 0.125244140625 0.583740234375 0.110595703125 Q 0.615234375 0.0673828125 0.6427001953125 0.052734375 Q 0.670166015625 0.0380859375 0.69140625 0.0380859375 Q 0.71630859375 0.0380859375 0.732421875 0.0472412109375 Q 0.74853515625 0.056396484375 0.7576904296875 0.0706787109375 Q 0.766845703125 0.0849609375 0.7705078125 0.1025390625 Q 0.774169921875 0.1201171875 0.774169921875 0.13623046875 Q 0.774169921875 0.1611328125 0.7705078125 0.188232421875 Q 0.766845703125 0.21533203125 0.766845703125 0.252685546875 Q 0.766845703125 0.26806640625 0.768310546875 0.283447265625 Q 0.769775390625 0.298828125 0.7745361328125 0.310546875 Q 0.779296875 0.322265625 0.78955078125 0.32958984375 Q 0.7998046875 0.3369140625 0.8173828125 0.3369140625 Q 0.83642578125 0.3369140625 0.854736328125 0.3270263671875 Q 0.873046875 0.317138671875 0.889892578125 0.301025390625 Q 0.90673828125 0.284912109375 0.9217529296875 0.264404296875 Q 0.936767578125 0.243896484375 0.94921875 0.223388671875 Q 0.961669921875 0.202880859375 0.97119140625 0.1842041015625 Q 0.980712890625 0.16552734375 0.986572265625 0.15234375 Q 0.990234375 0.144287109375 0.996826171875 0.139892578125 Q 1.00341796875 0.135498046875 1.011474609375 0.135498046875 Q 1.02392578125 0.135498046875 1.0316162109375 0.1446533203125 Q 1.039306640625 0.15380859375 1.039306640625 0.1640625 Q 1.039306640625 0.169189453125 1.037109375 0.17431640625 Q 1.0341796875 0.18017578125 1.025390625 0.1988525390625 Q 1.0166015625 0.217529296875 1.001953125 0.2413330078125 Q 0.9873046875 0.26513671875 0.9678955078125 0.29150390625 Q 0.948486328125 0.31787109375 0.925048828125 0.3402099609375 Q 0.901611328125 0.362548828125 0.87451171875 0.3768310546875 Q 0.847412109375 0.39111328125 0.8173828125 0.39111328125 Q 0.78515625 0.39111328125 0.7650146484375 0.3797607421875 Q 0.744873046875 0.368408203125 0.7327880859375 0.349365234375 Q 0.720703125 0.330322265625 0.71630859375 0.305419921875 Q 0.7119140625 0.280517578125 0.7119140625 0.25341796875 Q 0.7119140625 0.217529296875 0.715576171875 0.1871337890625 Q 0.71923828125 0.15673828125 0.71923828125 0.139892578125 Q 0.71923828125 0.12158203125 0.7159423828125 0.112060546875 Q 0.712646484375 0.1025390625 0.7078857421875 0.0985107421875 Q 0.703125 0.094482421875 0.69873046875 0.0941162109375 Q 0.6943359375 0.09375 0.692138671875 0.09375 Q 0.674560546875 0.09375 0.6551513671875 0.1131591796875 Q 0.6357421875 0.132568359375 0.615234375 0.164794921875 Q 0.5947265625 0.197021484375 0.5731201171875 0.238037109375 Q 0.551513671875 0.279052734375 0.529541015625 0.321533203125 Q 0.51708984375 0.344970703125 0.5086669921875 0.3603515625 Q 0.500244140625 0.375732421875 0.4925537109375 0.384521484375 Q 0.48486328125 0.393310546875 0.4775390625 0.39697265625 Q 0.47021484375 0.400634765625 0.46142578125 0.400634765625 Q 0.4423828125 0.400634765625 0.4324951171875 0.387451171875 Q 0.422607421875 0.374267578125 0.422607421875 0.35302734375 Q 0.422607421875 0.342041015625 0.42333984375 0.32373046875 Q 0.424072265625 0.305419921875 0.4248046875 0.283447265625 Q 0.425537109375 0.261474609375 0.427001953125 0.238037109375 Q 0.428466796875 0.214599609375 0.42919921875 0.1929931640625 Q 0.429931640625 0.17138671875 0.4306640625 0.154541015625 Q 0.431396484375 0.1376953125 0.431396484375 0.12890625 Q 0.431396484375 0.10986328125 0.4248046875 0.1014404296875 Q 0.418212890625 0.093017578125 0.409423828125 0.093017578125 Q 0.4013671875 0.093017578125 0.3914794921875 0.098876953125 Q 0.381591796875 0.104736328125 0.368408203125 0.12158203125 Q 0.358154296875 0.134765625 0.3424072265625 0.1600341796875 Q 0.32666015625 0.185302734375 0.30908203125 0.216064453125 Q 0.29150390625 0.246826171875 0.2742919921875 0.279052734375 Q 0.257080078125 0.311279296875 0.24462890625 0.3369140625 Q 0.229248046875 0.36767578125 0.2138671875 0.3790283203125 Q 0.198486328125 0.390380859375 0.183837890625 0.390380859375 Q 0.16259765625 0.390380859375 0.15234375 0.3775634765625 Q 0.14208984375 0.36474609375 0.14208984375 0.343505859375 Q 0.14208984375 0.34130859375 0.1431884765625 0.317138671875 Q 0.144287109375 0.29296875 0.145751953125 0.2581787109375 Q 0.147216796875 0.223388671875 0.1490478515625 0.183837890625 Q 0.15087890625 0.144287109375 0.15234375 0.10986328125 Q 0.153076171875 0.091552734375 0.15087890625 0.076171875 Q 0.148681640625 0.060791015625 0.14501953125 0.057861328125 Q 0.13916015625 0.059326171875 0.1219482421875 0.0849609375 Q 0.104736328125 0.110595703125 0.078369140625 0.17431640625 Q 0.07470703125 0.182373046875 0.0673828125 0.186767578125 Q 0.06005859375 0.191162109375 0.052001953125 0.191162109375 Q 0.03955078125 0.191162109375 0.0322265625 0.1827392578125 Q 0.02490234375 0.17431640625 0.02490234375 0.163330078125 Q 0.02490234375 0.158203125 0.027099609375 0.15234375 Q 0.06005859375 0.073974609375 0.090087890625 0.0369873046875 Q 0.1201171875 0 0.148681640625 0 Q 0.16552734375 0 0.1768798828125 0.0076904296875 Q 0.188232421875 0.015380859375 0.19482421875 0.0274658203125 Q 0.201416015625 0.03955078125 0.204345703125 0.054931640625 Q 0.207275390625 0.0703125 0.207275390625 0.0849609375 Q 0.207275390625 0.150146484375 0.2039794921875 0.204345703125 Q 0.20068359375 0.258544921875 0.197021484375 0.3134765625 M 1.56005859375 0.17431640625 Q 1.55712890625 0.18017578125 1.5479736328125 0.1988525390625 Q 1.538818359375 0.217529296875 1.5245361328125 0.24169921875 Q 1.51025390625 0.265869140625 1.4912109375 0.292236328125 Q 1.47216796875 0.318603515625 1.44873046875 0.340576171875 Q 1.42529296875 0.362548828125 1.398193359375 0.3768310546875 Q 1.37109375 0.39111328125 1.341064453125 0.39111328125 Q 1.298583984375 0.39111328125 1.2696533203125 0.364013671875 Q 1.24072265625 0.3369140625 1.2275390625 0.2958984375 Q 1.20263671875 0.337646484375 1.168212890625 0.3621826171875 Q 1.1337890625 0.38671875 1.099365234375 0.38671875 Q 1.072265625 0.38671875 1.05029296875 0.3768310546875 Q 1.0283203125 0.366943359375 1.012939453125 0.3489990234375 Q 0.99755859375 0.3310546875 0.9891357421875 0.306884765625 Q 0.980712890625 0.28271484375 0.980712890625 0.254150390625 Q 0.980712890625 0.197021484375 1.0001220703125 0.1534423828125 Q 1.01953125 0.10986328125 1.049560546875 0.08056640625 Q 1.07958984375 0.05126953125 1.1158447265625 0.03662109375 Q 1.152099609375 0.02197265625 1.185791015625 0.02197265625 Q 1.20849609375 0.02197265625 1.2275390625 0.0281982421875 Q 1.24658203125 0.034423828125 1.2601318359375 0.041748046875 Q 1.273681640625 0.049072265625 1.281005859375 0.0552978515625 Q 1.288330078125 0.0615234375 1.2890625 0.062255859375 Q 1.297119140625 0.07177734375 1.297119140625 0.08203125 Q 1.297119140625 0.093017578125 1.2890625 0.1014404296875 Q 1.281005859375 0.10986328125 1.27001953125 0.10986328125 Q 1.25830078125 0.10986328125 1.250244140625 0.101806640625 Q 1.248779296875 0.100341796875 1.24365234375 0.0963134765625 Q 1.238525390625 0.09228515625 1.229736328125 0.087890625 Q 1.220947265625 0.08349609375 1.2088623046875 0.0802001953125 Q 1.19677734375 0.076904296875 1.181396484375 0.076904296875 Q 1.15869140625 0.076904296875 1.133056640625 0.087158203125 Q 1.107421875 0.097412109375 1.086181640625 0.1190185546875 Q 1.06494140625 0.140625 1.0506591796875 0.1732177734375 Q 1.036376953125 0.205810546875 1.036376953125 0.25048828125 Q 1.036376953125 0.264404296875 1.039306640625 0.2786865234375 Q 1.042236328125 0.29296875 1.049560546875 0.3046875 Q 1.056884765625 0.31640625 1.0693359375 0.32373046875 Q 1.081787109375 0.3310546875 1.10009765625 0.3310546875 Q 1.11328125 0.3310546875 1.1304931640625 0.322265625 Q 1.147705078125 0.3134765625 1.1634521484375 0.295166015625 Q 1.17919921875 0.27685546875 1.1920166015625 0.2490234375 Q 1.204833984375 0.22119140625 1.2099609375 0.18310546875 Q 1.21142578125 0.1728515625 1.219482421875 0.1658935546875 Q 1.2275390625 0.158935546875 1.238525390625 0.158935546875 Q 1.248779296875 0.158935546875 1.2564697265625 0.1669921875 Q 1.26416015625 0.175048828125 1.264892578125 0.185302734375 Q 1.265625 0.19921875 1.267822265625 0.2244873046875 Q 1.27001953125 0.249755859375 1.2777099609375 0.274658203125 Q 1.285400390625 0.299560546875 1.30078125 0.31787109375 Q 1.316162109375 0.336181640625 1.34326171875 0.336181640625 Q 1.36083984375 0.336181640625 1.3780517578125 0.32666015625 Q 1.395263671875 0.317138671875 1.4117431640625 0.3013916015625 Q 1.42822265625 0.28564453125 1.4432373046875 0.2655029296875 Q 1.458251953125 0.245361328125 1.470703125 0.224853515625 Q 1.483154296875 0.204345703125 1.49267578125 0.185302734375 Q 1.502197265625 0.166259765625 1.5087890625 0.15234375 Q 1.512451171875 0.144287109375 1.5194091796875 0.139892578125 Q 1.5263671875 0.135498046875 1.534423828125 0.135498046875 Q 1.546875 0.135498046875 1.5545654296875 0.1446533203125 Q 1.562255859375 0.15380859375 1.562255859375 0.1640625 Q 1.562255859375 0.169189453125 1.56005859375 0.17431640625 M 1.679443359375 0.312744140625 Q 1.691162109375 0.28857421875 1.70654296875 0.2596435546875 Q 1.721923828125 0.230712890625 1.739501953125 0.2010498046875 Q 1.757080078125 0.17138671875 1.7764892578125 0.14208984375 Q 1.7958984375 0.11279296875 1.817138671875 0.08642578125 Q 1.83837890625 0.060791015625 1.8599853515625 0.0494384765625 Q 1.881591796875 0.0380859375 1.900634765625 0.0380859375 Q 1.938720703125 0.0380859375 1.95703125 0.06591796875 Q 1.975341796875 0.09375 1.975341796875 0.134765625 Q 1.975341796875 0.144287109375 1.9742431640625 0.1578369140625 Q 1.97314453125 0.17138671875 1.9720458984375 0.186767578125 Q 1.970947265625 0.2021484375 1.9698486328125 0.2178955078125 Q 1.96875 0.233642578125 1.96875 0.24755859375 Q 1.96875 0.26513671875 1.9705810546875 0.28125 Q 1.972412109375 0.29736328125 1.9775390625 0.3094482421875 Q 1.982666015625 0.321533203125 1.9921875 0.3284912109375 Q 2.001708984375 0.33544921875 2.01708984375 0.33544921875 Q 2.044921875 0.33544921875 2.0712890625 0.3138427734375 Q 2.09765625 0.292236328125 2.1199951171875 0.2625732421875 Q 2.142333984375 0.23291015625 2.1588134765625 0.2021484375 Q 2.17529296875 0.17138671875 2.183349609375 0.15234375 Q 2.18701171875 0.144287109375 2.1939697265625 0.139892578125 Q 2.200927734375 0.135498046875 2.208984375 0.135498046875 Q 2.221435546875 0.135498046875 2.2291259765625 0.1446533203125 Q 2.23681640625 0.15380859375 2.23681640625 0.1640625 Q 2.23681640625 0.169189453125 2.234619140625 0.17431640625 Q 2.231689453125 0.18017578125 2.222900390625 0.198486328125 Q 2.214111328125 0.216796875 2.1998291015625 0.2406005859375 Q 2.185546875 0.264404296875 2.16650390625 0.2911376953125 Q 2.1474609375 0.31787109375 2.1243896484375 0.33984375 Q 2.101318359375 0.36181640625 2.0745849609375 0.37646484375 Q 2.0478515625 0.39111328125 2.0185546875 0.39111328125 Q 1.985595703125 0.39111328125 1.965087890625 0.3782958984375 Q 1.944580078125 0.365478515625 1.932861328125 0.3446044921875 Q 1.921142578125 0.32373046875 1.9171142578125 0.2984619140625 Q 1.9130859375 0.273193359375 1.9130859375 0.24755859375 Q 1.9130859375 0.236572265625 1.9141845703125 0.22265625 Q 1.915283203125 0.208740234375 1.9171142578125 0.193359375 Q 1.9189453125 0.177978515625 1.9200439453125 0.16259765625 Q 1.921142578125 0.147216796875 1.921142578125 0.13330078125 Q 1.921142578125 0.10986328125 1.913818359375 0.1014404296875 Q 1.906494140625 0.093017578125 1.900634765625 0.093017578125 Q 1.888916015625 0.093017578125 1.8739013671875 0.1065673828125 Q 1.85888671875 0.1201171875 1.8424072265625 0.14208984375 Q 1.825927734375 0.1640625 1.8087158203125 0.1915283203125 Q 1.79150390625 0.218994140625 1.7764892578125 0.24609375 Q 1.761474609375 0.273193359375 1.7486572265625 0.2977294921875 Q 1.73583984375 0.322265625 1.728515625 0.33837890625 Q 1.7138671875 0.369140625 1.69921875 0.3797607421875 Q 1.6845703125 0.390380859375 1.669189453125 0.390380859375 Q 1.64794921875 0.390380859375 1.6351318359375 0.3775634765625 Q 1.622314453125 0.36474609375 1.622314453125 0.34130859375 Q 1.622314453125 0.336181640625 1.623779296875 0.3211669921875 Q 1.625244140625 0.30615234375 1.62744140625 0.2852783203125 Q 1.629638671875 0.264404296875 1.6318359375 0.240234375 Q 1.634033203125 0.216064453125 1.63623046875 0.1922607421875 Q 1.638427734375 0.16845703125 1.639892578125 0.14794921875 Q 1.641357421875 0.12744140625 1.641357421875 0.113525390625 Q 1.641357421875 0.09521484375 1.639892578125 0.078369140625 Q 1.638427734375 0.0615234375 1.634033203125 0.057861328125 Q 1.62744140625 0.06005859375 1.610595703125 0.0853271484375 Q 1.59375 0.110595703125 1.5673828125 0.17431640625 Q 1.563720703125 0.182373046875 1.556396484375 0.186767578125 Q 1.549072265625 0.191162109375 1.541015625 0.191162109375 Q 1.528564453125 0.191162109375 1.521240234375 0.1827392578125 Q 1.513916015625 0.17431640625 1.513916015625 0.163330078125 Q 1.513916015625 0.158203125 1.51611328125 0.15234375 Q 1.549072265625 0.073974609375 1.5780029296875 0.0369873046875 Q 1.60693359375 0 1.635498046875 0 Q 1.65234375 0 1.6640625 0.0084228515625 Q 1.67578125 0.016845703125 1.6827392578125 0.03076171875 Q 1.689697265625 0.044677734375 1.6929931640625 0.0615234375 Q 1.6962890625 0.078369140625 1.6962890625 0.095947265625 Q 1.6962890625 0.109130859375 1.6944580078125 0.136962890625 Q 1.692626953125 0.164794921875 1.689697265625 0.1966552734375 Q 1.686767578125 0.228515625 1.6842041015625 0.260009765625 Q 1.681640625 0.29150390625 1.679443359375 0.312744140625 M 2.529052734375 0.298095703125 Q 2.5107421875 0.298095703125 2.496826171875 0.295166015625 Q 2.48583984375 0.317138671875 2.470458984375 0.3358154296875 Q 2.455078125 0.3544921875 2.4349365234375 0.368408203125 Q 2.414794921875 0.38232421875 2.389892578125 0.390380859375 Q 2.364990234375 0.3984375 2.335693359375 0.3984375 Q 2.30126953125 0.3984375 2.272705078125 0.3863525390625 Q 2.244140625 0.374267578125 2.222900390625 0.3526611328125 Q 2.20166015625 0.3310546875 2.18994140625 0.3006591796875 Q 2.17822265625 0.270263671875 2.17822265625 0.233642578125 Q 2.17822265625 0.186767578125 2.195068359375 0.1519775390625 Q 2.2119140625 0.1171875 2.23388671875 0.0941162109375 Q 2.255859375 0.071044921875 2.27783203125 0.0596923828125 Q 2.2998046875 0.04833984375 2.310791015625 0.04833984375 Q 2.3232421875 0.04833984375 2.3294677734375 0.054931640625 Q 2.335693359375 0.0615234375 2.335693359375 0.072509765625 Q 2.335693359375 0.0849609375 2.3280029296875 0.0911865234375 Q 2.3203125 0.097412109375 2.30859375 0.103271484375 Q 2.296875 0.109130859375 2.28369140625 0.1197509765625 Q 2.2705078125 0.13037109375 2.2591552734375 0.146484375 Q 2.247802734375 0.16259765625 2.240478515625 0.1845703125 Q 2.233154296875 0.20654296875 2.233154296875 0.233642578125 Q 2.233154296875 0.2578125 2.240478515625 0.2786865234375 Q 2.247802734375 0.299560546875 2.26171875 0.3145751953125 Q 2.275634765625 0.32958984375 2.294677734375 0.3380126953125 Q 2.313720703125 0.346435546875 2.337158203125 0.346435546875 Q 2.37890625 0.346435546875 2.4063720703125 0.3270263671875 Q 2.433837890625 0.3076171875 2.448486328125 0.277587890625 Q 2.4052734375 0.2548828125 2.37744140625 0.213134765625 Q 2.349609375 0.17138671875 2.349609375 0.119384765625 Q 2.349609375 0.07763671875 2.3697509765625 0.05126953125 Q 2.389892578125 0.02490234375 2.4228515625 0.02490234375 Q 2.442626953125 0.02490234375 2.460205078125 0.034423828125 Q 2.477783203125 0.0439453125 2.4913330078125 0.064453125 Q 2.5048828125 0.0849609375 2.512939453125 0.1171875 Q 2.52099609375 0.1494140625 2.52099609375 0.194091796875 Q 2.52099609375 0.217529296875 2.51513671875 0.2431640625 Q 2.51953125 0.243896484375 2.52392578125 0.243896484375 Q 2.5283203125 0.243896484375 2.533447265625 0.243896484375 Q 2.558349609375 0.243896484375 2.578125 0.238037109375 Q 2.597900390625 0.232177734375 2.614013671875 0.220458984375 Q 2.630126953125 0.208740234375 2.6429443359375 0.1904296875 Q 2.65576171875 0.172119140625 2.66748046875 0.14794921875 Q 2.669677734375 0.1435546875 2.677001953125 0.1395263671875 Q 2.684326171875 0.135498046875 2.691650390625 0.135498046875 Q 2.701171875 0.135498046875 2.7095947265625 0.1431884765625 Q 2.718017578125 0.15087890625 2.718017578125 0.163330078125 Q 2.718017578125 0.169189453125 2.715087890625 0.1761474609375 Q 2.712158203125 0.18310546875 2.709228515625 0.18896484375 Q 2.69677734375 0.2109375 2.6802978515625 0.2310791015625 Q 2.663818359375 0.251220703125 2.6414794921875 0.2662353515625 Q 2.619140625 0.28125 2.59130859375 0.2900390625 Q 2.5634765625 0.298828125 2.529052734375 0.298095703125 M 2.40380859375 0.113525390625 Q 2.40380859375 0.12744140625 2.407470703125 0.142822265625 Q 2.4111328125 0.158203125 2.4188232421875 0.1732177734375 Q 2.426513671875 0.188232421875 2.4378662109375 0.2017822265625 Q 2.44921875 0.21533203125 2.464599609375 0.224853515625 Q 2.466796875 0.20947265625 2.466796875 0.19482421875 Q 2.466796875 0.175048828125 2.4638671875 0.154541015625 Q 2.4609375 0.134033203125 2.4554443359375 0.1168212890625 Q 2.449951171875 0.099609375 2.44189453125 0.0889892578125 Q 2.433837890625 0.078369140625 2.4228515625 0.078369140625 Q 2.41845703125 0.078369140625 2.4111328125 0.0849609375 Q 2.40380859375 0.091552734375 2.40380859375 0.113525390625" fill="#ffffff" fill-rule="nonzero"></path></g><g></g><g clip-path="url(#SvgjsClipPath1001)"><g clip-path="url(#SvgjsClipPath100043238274-653f-407d-b579-fb311db7a4c8)"><path d=" M -0.3565995260027216 0.006651712167993429 C -0.37340957971537947 -0.011279889372635077 -0.3812551490284132 -0.02080778042762471 -0.34035024620404886 -0.03649891905369218 C -0.29944534337968465 -0.052190057679759705 -0.2932768303258465 -0.06115454207938384 -0.32802111832051295 -0.07292289604893448 C -0.3627654063151796 -0.0846912500184851 -0.4143171152811239 -0.06227345716597421 -0.41599943702307973 -0.03313427556978038 C -0.41768175876503544 -0.00399509397358655 -0.38517793368493003 0.03410857202223139 -0.38517793368493003 0.03410857202223139 C -0.38517793368493003 0.03410857202223139 -0.4014298462249828 0.05876419504792302 -0.38853994442746154 0.07053254901747369 C -0.3756500426299403 0.0823009029870243 -0.3739703536293647 0.09406925695657492 -0.3336235919776055 0.06493007536038115 C -0.2932768303258465 0.03579089376418737 -0.2859920349267979 0.053722495304815765 -0.2686212073001546 0.07949966615847803 C -0.2512503796735115 0.10527683701214025 -0.24900991675895057 0.10527420427076006 -0.243404810360478 0.1019121935282285 C -0.23779970396200523 0.098550182785697 -0.2204288763353619 0.08902492447208743 -0.2282744456483956 0.07558477972610184 C -0.2361200149614291 0.06214463498011613 -0.2882351305827391 -0.019678334375513418 -0.2882351305827391 -0.019678334375513418 Z" fill="#afd5e5" transform="matrix(1,0,0,1,0,0)" fill-rule="nonzero"></path></g><g clip-path="url(#SvgjsClipPath100043238274-653f-407d-b579-fb311db7a4c8)"><path d=" M -0.17335809319853968 0.2518125894933973 C -0.18260428092584635 0.23584238028102716 -0.1624322164706571 0.21735000482641337 -0.1624322164706571 0.21735000482641337 L -0.1405804630148919 0.2274360370540081 C -0.1405804630148919 0.2274360370540081 -0.06072678421166122 0.3325061127969155 -0.06408879495419306 0.3442718340250858 C -0.06745080569672468 0.35603755525325625 -0.09266983537778173 0.3711705527067188 -0.09855137962117677 0.36276420947969973 C -0.10443292386457204 0.35435786625268056 -0.17335809319853968 0.2518125894933973 -0.17335809319853968 0.2518125894933973 Z" fill="#afd5e5" transform="matrix(1,0,0,1,0,0)" fill-rule="nonzero"></path></g><g clip-path="url(#SvgjsClipPath100043238274-653f-407d-b579-fb311db7a4c8)"><path d=" M -0.8924361136346457 -0.04163276474510691 C -0.855769924432424 -0.06619360908111091 -0.8164815248155102 -0.08502824091515235 -0.7734704288869758 -0.09553287902220092 C -0.7570868792779124 -0.09953727866150439 -0.7405216705136144 -0.10242013047283724 -0.7235378558698623 -0.10018493304103668 C -0.7210683444552229 -0.0998611058512705 -0.7186225277130053 -0.09936615047179051 -0.7162504277294337 -0.09886856235093033 C -0.7141100803988875 -0.09843528821653366 -0.711905402693956 -0.09921912861323418 -0.7105189497447107 -0.10090630417921498 C -0.7022547745522232 -0.11091072142402311 -0.6939037188941886 -0.12051759472041912 -0.6863398529088375 -0.130716834827363 C -0.6802232073943252 -0.1387933475424937 -0.674887266138349 -0.14743240657248968 -0.6704038693344103 -0.15651770035344703 C -0.6627241627283299 -0.17253003342790063 -0.6663046910054191 -0.17841684315405615 -0.6841810049770632 -0.17885914370593192 C -0.6957667132827111 -0.17902586633924578 -0.707346582264219 -0.1782421933566937 -0.7188041868682402 -0.17651600387754263 C -0.752256005791195 -0.17209907714245537 -0.7844542823637538 -0.16090076721348892 -0.8134275448144634 -0.14360673662488432 C -0.8617488801068869 -0.11442543116660703 -0.8941184353766016 -0.07224364877283965 -0.9146037960560365 -0.02008114380668602 C -0.91661068895061 -0.014802159904642953 -0.9179917737099899 -0.009306096434814504 -0.9187187708333089 -0.003705492421763268 L -0.8967143183774915 -0.02380384011830672 C -0.9034673000177369 -0.03213909932806003 -0.9024378981380736 -0.03493243793246564 -0.8924361136346457 -0.04163276474510691 Z" fill="#afd5e5" transform="matrix(1,0,0,1,0,0)" fill-rule="nonzero"></path></g><g clip-path="url(#SvgjsClipPath100043238274-653f-407d-b579-fb311db7a4c8)"><path d=" M -0.9261009776634251 -0.03298157656972811 C -0.9198001476270363 -0.05036470768064641 -0.911669317119652 -0.0670288064150901 -0.901845531327526 -0.08269299931090365 C -0.8884194492308413 -0.10410509338358603 -0.8718840377312974 -0.12340173049949515 -0.8527817629658829 -0.13994985884776842 C -0.835380986317225 -0.15452093880020965 -0.8162288177206876 -0.16686216995218767 -0.7957697483773776 -0.17668713206725617 C -0.794203388763302 -0.17746410956062414 -0.7930582866989204 -0.1788909847110819 -0.7926388738554051 -0.1805884149254059 C -0.7922194610118898 -0.18228584513972992 -0.7925682346035108 -0.18408183746004547 -0.7935924712559412 -0.18549891746682826 C -0.7968412741191238 -0.18997457781318983 -0.7998583957408474 -0.1941053490387435 -0.8025595883969456 -0.1984335758678131 C -0.8046530924190038 -0.20266739618925467 -0.8092239419692898 -0.20508332572175264 -0.8139014382629018 -0.20442832799055738 C -0.8274495254054761 -0.2031725103521959 -0.8411450460653426 -0.20298821845558102 -0.8545641288802865 -0.2009478438859162 C -0.8840192394421058 -0.19647218353955465 -0.91167618764124 -0.18618079748430333 -0.9382616100986274 -0.17288545351422938 C -0.9414777436887343 -0.17149217399816657 -0.9438123857958612 -0.16861808807083228 -0.9445170036180128 -0.16518468497710734 C -0.9468311832912197 -0.15532243576683064 -0.9499141234474487 -0.14562868200488763 -0.9519439670515928 -0.13571377796700668 C -0.9574964186224613 -0.10853862144045154 -0.9587259088470206 -0.08121603139660444 -0.9518939449653687 -0.0539224015079397 L -0.9518781485170874 -0.0539224015079397 L -0.9324643135793992 -0.06287372220066278 C -0.9310122263676337 -0.06354338987967592 -0.929318330125219 -0.06342268374862023 -0.9279758736703558 -0.06255387839776003 C -0.9266334172154924 -0.06168507304689974 -0.9258294720418669 -0.06018923662270592 -0.9258456017495444 -0.05859025197505677 Z" fill="#afd5e5" transform="matrix(1,0,0,1,0,0)" fill-rule="nonzero"></path></g><g clip-path="url(#SvgjsClipPath100043238274-653f-407d-b579-fb311db7a4c8)"><path d=" M -0.6390979415823015 0.50760710925348 C -0.650271295999924 0.4208240551375297 -0.6925425916006187 0.37384541794901477 -0.7114562056760665 0.36013673358224746 C -0.7153763575912032 0.3572986383743782 -0.7191543414718085 0.35425782208023254 -0.7234641391112164 0.35095109890668535 C -0.7259994690603613 0.3515329347517124 -0.728508471595704 0.3519778680449684 -0.7310253723551873 0.35244912875202644 C -0.6965891151020055 0.39445451747331955 -0.6824012718040395 0.4488074632678101 -0.6801397469584369 0.4645012346352578 C -0.6785873512470791 0.47485842321081745 -0.6790639481450312 0.4854186659215392 -0.6815429981140901 0.4955939103355695 C -0.6828234392141441 0.5026192528419455 -0.687741402017795 0.5084345809278119 -0.6944565945840333 0.510863810340803 C -0.7015249492009981 0.5133929895039429 -0.7088104409557887 0.5152683404721532 -0.7162214675742514 0.5164662839978953 C -0.7367357884088686 0.5195781843093068 -0.7573633171228349 0.5179985394811792 -0.777827615871228 0.5159686958770351 C -0.7979917821022767 0.5139678124280735 -0.8180269440056952 0.5106215981338231 -0.8381173934780981 0.5077835029259541 L -0.8382200703919263 0.5077677064776729 C -0.8410299406302816 0.5073304320361649 -0.8435356463044665 0.5057551080605833 -0.8451475882671055 0.5034124124331758 C -0.8467595302297444 0.5010697168057683 -0.8473353738107727 0.4981665098334919 -0.8467396214982945 0.49538592376653273 C -0.8460445777739183 0.49207130236884494 -0.8453784942047246 0.48883303047118337 -0.8447624327217548 0.48558422760800096 C -0.8391810209957038 0.4559263959599053 -0.840852811772139 0.4264317942773827 -0.8468133382569405 0.39704513499144883 C -0.8469265461362896 0.3965765070257709 -0.8470423867570189 0.39611314454285357 -0.8471608601191285 0.3956418838357954 C -0.8489458587749127 0.38944967610953535 -0.8569572907948999 0.35333899533853824 -0.8650819306942361 0.33143985253792935 C -0.8737857736972192 0.3274029824216032 -0.8824237981656969 0.3230256110867697 -0.8909960040996694 0.3183077385334286 C -0.8913540569273783 0.31913441932681536 -0.8917989902206342 0.31966886582699844 -0.8917621318413113 0.3201717194306191 C -0.8916492833764709 0.3216110775203502 -0.8914399487130521 0.3230412378679079 -0.8911355393928206 0.3244525569148449 C -0.8818932281783232 0.368768894213414 -0.8778501166649818 0.4140118068340795 -0.8790881148369674 0.45926471203001523 C -0.8792567391736237 0.4801557148730105 -0.8816985028423505 0.5009663210648307 -0.8863702774946352 0.5213289573271458 C -0.889679633409563 0.534755938366233 -0.9130741733141328 0.611631986668443 -0.9200693671613578 0.6354398669697061 C -0.8728621327268105 0.6506769520579732 -0.8235575657528561 0.6584173248875957 -0.7739522205595546 0.6583789426154989 C -0.736209240132826 0.6583789426154991 -0.6909234556517878 0.6540902069071326 -0.6411172542209246 0.645662801749072 C -0.6391400654443848 0.6277390984325841 -0.6372523898747724 0.6098074968919556 -0.6361150455985205 0.5918311387478636 C -0.6344084979975498 0.5637257362767414 -0.6354073898884944 0.5355213669182182 -0.6390979415823015 0.5076071092534791 Z" fill="#afd5e5" transform="matrix(1,0,0,1,0,0)" fill-rule="nonzero"></path></g><g clip-path="url(#SvgjsClipPath100043238274-653f-407d-b579-fb311db7a4c8)"><path d=" M -0.9588127893125675 0.01679566470595284 C -0.9596789612266576 0.01643761187824394 -0.9605372349166069 0.016124315653998633 -0.9613876103824155 0.01572413896420627 C -0.9620685420922981 0.015416602829518511 -0.9627146091487166 0.015037082564135995 -0.9633147770727313 0.014592060170714793 C -0.9661619536044413 0.012643670373345128 -0.9683752646384021 0.00990311899382551 -0.9696807457300856 0.006709632478358096 C -0.9702072940061279 0.00544854935723621 -0.9706364308511026 0.004250652029239466 -0.9709418288512073 0.0033107633565035433 C -0.970946394918716 0.003290132312096461 -0.9709525565116389 0.00326988707820719 -0.9709602580408688 0.0032502103047586384 L -0.9715526248514167 0.0015073355110578612 C -0.9715789522652188 0.0014283532696514611 -0.9715262974376145 0.0014573134248337949 -0.9715368284031354 0.0013783311834273948 C -0.9715473593686563 0.0012993489420210502 -0.9713446382823798 0.0012703887868387165 -0.9741695697833481 0.0013072471661616514 C -0.975667366374046 0.0013998977142647973 -0.9771708710751302 0.0013052653595495567 -0.9786452301297096 0.001025543838478915 C -0.980281280420169 0.000759490497525106 -0.98187031553111 0.0002584833336402581 -0.9833631026830507 -0.0004619550413412221 C -0.9864814983815274 -0.002035469926178035 -0.9890046747017266 -0.004578972090040545 -0.9905531193924115 -0.007709892061066703 C -0.9911959725337229 -0.009122929846888617 -0.9916772998527417 -0.010604004918438048 -0.9919879634446274 -0.012124999355683397 L -0.9968032474290365 -0.004189916835722396 L -1.012494386055104 0.02130028520749666 C -1.0197528540403502 0.03300018790116177 -1.0271482245773675 0.04461057738789964 -1.0345251659247234 0.05623413058153853 C -1.0377792342706664 0.06136534353157308 -1.040970116823484 0.06653868034369087 -1.044250512583229 0.07165409684544416 C -1.0370815483657307 0.0680758262731937 -1.029111057052907 0.0664064662610312 -1.0211087158511596 0.06680721996447259 C -1.0171048313567852 0.06704104420633927 -1.0131352055475944 0.06768235930929073 -1.0092613796402026 0.06872122294788718 C -1.0064101207254323 0.06941363393088318 -1.0035641272934224 0.07017186344838439 -1.000726032085553 0.07082741605205739 C -1.0006338861372457 0.07084847798309912 -1.0005522711544592 0.0708800708796617 -1.000462757947532 0.07090376555208355 C -1.0003732447406049 0.07092746022450547 -1.0002600368612555 0.07096168586244822 -1.0001599926888076 0.07099327875901079 C -0.9997492850334944 0.07049832337953083 -0.9993438428609416 0.07000600074143098 -0.9989252369814878 0.06949524891366976 C -0.988899757805638 0.057331983737087255 -0.9758703207149654 0.04161715043859787 -0.9668847743842997 0.030965078814257363 L -0.9554507785700359 0.017498606654469562 C -0.9565433662428242 0.01733011120613598 -0.9576938742259772 0.017077368033635576 -0.9588127893125675 0.01679566470595284 Z" fill="#fcb238" transform="matrix(1,0,0,1,0,0)" fill-rule="nonzero"></path></g><g clip-path="url(#SvgjsClipPath100043238274-653f-407d-b579-fb311db7a4c8)"><path d=" M -0.4189665365585796 0.15757624453006486 C -0.42044344248257803 0.15660053451447475 -0.4223865577843279 0.15671414191766586 -0.42373969668090516 0.1578553151163674 C -0.42432975964698405 0.1583880221537663 -0.4248594881092941 0.15898396667386522 -0.4253193415090327 0.159632415548011 C -0.4353673511337556 0.17306143478754793 -0.44683039381341993 0.18537094377427304 -0.45951075381385464 0.1963486268364566 C -0.4870959973933551 0.22011349743871816 -0.5184194862493596 0.2391556024725599 -0.5522148432939032 0.25270508882128934 C -0.55526882329495 0.25395827371827057 -0.5583780908649811 0.2550745560634807 -0.5614294381246475 0.25635933385702453 C -0.5632028777567055 0.2571519789010402 -0.5641459580045506 0.2591082301638888 -0.563661510900038 0.2609893695253625 C -0.5631770637955256 0.2628705088868362 -0.5614063817342322 0.26412788885927313 -0.5594706785377692 0.26396532370445897 C -0.5587914312616744 0.26391003613547453 -0.55811744946834 0.26375996987680234 -0.5574434676750056 0.2636520274802136 L -0.5574171402612035 0.26375996987680234 C -0.5516646003454387 0.2623488204970084 -0.5458699365675906 0.2610956356000271 -0.5401700514794303 0.25949492884085773 C -0.530078050295036 0.2566598144386692 -0.5202134558467395 0.2530700490042324 -0.5106596533486267 0.24875597675097044 C -0.4873694521737475 0.23843457001304275 -0.46623205847685334 0.22381809710466477 -0.4483531958445135 0.20567116406379 C -0.43647875854223483 0.19364399143494426 -0.42649768126393706 0.17988494680548706 -0.41875065176540216 0.1648636726704935 C -0.4182583606768665 0.16396374520593587 -0.417829923562403 0.16303033292986668 -0.41746850671323843 0.16207033406608784 C -0.41682402116962314 0.16040693444055687 -0.4174529083483687 0.15852027290432041 -0.4189665365585796 0.15757624453006486 Z" fill="#3b3b3c" transform="matrix(1,0,0,1,0,0)" fill-rule="nonzero"></path></g><g clip-path="url(#SvgjsClipPath100043238274-653f-407d-b579-fb311db7a4c8)"><path d=" M -0.4203197656280089 0.22134387350019596 C -0.4222445097946108 0.22073509722230583 -0.42432606651995997 0.22161730205762004 -0.4252271955607254 0.22342373919056407 C -0.42841281263078257 0.22786254115760257 -0.43148522182149074 0.23239875455570896 -0.434881458201965 0.23667959203993466 C -0.4531764458106823 0.25994228007059933 -0.4760467162822304 0.27920692570366173 -0.5020795491905132 0.293283531714507 C -0.5034749021220258 0.2940364957492479 -0.5048412948983562 0.2948421146115931 -0.5063156300712753 0.29567669362912047 C -0.507079747755628 0.29762040000874895 -0.5067593341431201 0.2998232435947403 -0.5054731528296071 0.3014687246655882 C -0.504841076593423 0.3024723123966389 -0.5036240737595694 0.3029404728177603 -0.5024823586216857 0.3026192326487412 C -0.500160280724338 0.3020531932519955 -0.497819773637329 0.30153980868285407 -0.4955292886365439 0.30086056140675915 C -0.46391974444351747 0.2916521219439418 -0.4376150967007715 0.2696196996341304 -0.4230051618358255 0.24011531954111215 C -0.4207711099552388 0.23575246223073704 -0.41890674359498414 0.23120999568081108 -0.41743164833391533 0.22653563950197536 C -0.4169700242979726 0.2254673824973084 -0.4170310374079317 0.224245263476811 -0.4175967642605247 0.22322829597151156 C -0.41816249111311776 0.22221132846621233 -0.41916868588344947 0.22151500269187557 -0.42031976562800877 0.22134387350019596 Z" fill="#3b3b3c" transform="matrix(1,0,0,1,0,0)" fill-rule="nonzero"></path></g><g clip-path="url(#SvgjsClipPath100043238274-653f-407d-b579-fb311db7a4c8)"><path d=" M -0.06780359304167294 0.31904227337850793 C -0.0856061902546712 0.29147220564492077 -0.106525953261841 0.26622684855006146 -0.1274536144931513 0.24104730998970764 C -0.13310874297784814 0.23423904078047758 -0.13666820932389556 0.22819953205426974 -0.13287442899500945 0.2194772598616252 C -0.13235639044185366 0.21722187467244475 -0.13198440133097256 0.2149354167805037 -0.13176077939117947 0.21263213227307226 C -0.127250893406875 0.19646183471580608 -0.13294551301227497 0.18298746433187763 -0.1430157487915884 0.1708610575346181 C -0.14501960674284575 0.16849307875160324 -0.1463620016100382 0.16563753784331237 -0.14690694055154307 0.1625837186352294 C -0.14913160701782258 0.15194481071779004 -0.15268054239834905 0.1417850617315493 -0.16241642002237566 0.1354664824190389 C -0.16513604186813557 0.1336946474701558 -0.1651228781612344 0.13130148555554244 -0.16542827616133904 0.1287503591581164 C -0.16646850155162185 0.12095812870528538 -0.16953102929703423 0.11357411471330942 -0.17431114557817673 0.10733300803008627 C -0.17942129659716932 0.10035887611390304 -0.1864717780133791 0.09706531664725693 -0.19484652834383565 0.10022460630351221 C -0.20157972223302134 0.1027777563008127 -0.20801657589581724 0.10605267773374916 -0.21404447848834618 0.10999207682410123 C -0.2222612643359898 0.1153523382742142 -0.22990147982136722 0.1215945680866985 -0.2379787303758596 0.12760248391634377 L -0.2567001543305518 0.11457567956705145 C -0.2486571294140021 0.10780953421990491 -0.24196996630826173 0.1007248271657526 -0.23395326880551437 0.09582792819855696 C -0.22455964756091573 0.09009645021383406 -0.21409713331595048 0.08521798043629997 -0.2038873622434858 0.0955330611639732 C -0.20184172219106045 0.09759976314744012 -0.1942883871712302 0.09569892387092654 -0.19291409617075939 0.0931635939217818 C -0.191092239135652 0.08982001236891168 -0.19375130792966688 0.08763483702333519 -0.19561792156823765 0.08567871017783718 C -0.20116579650196997 0.0799699011088848 -0.20911068654577614 0.07726092652878425 -0.2169905160928043 0.07839128203740853 C -0.22004976157661127 0.07865455617542977 -0.22310900706041847 0.0790073435203783 -0.22616825254422546 0.07932063974462361 C -0.2235802677674763 0.07555581957091945 -0.22465442625060317 0.07221223801804943 -0.22680274321685667 0.06841055946502234 C -0.23707043459968613 0.05024464394155487 -0.24704062620655143 0.03191286571113405 -0.25711612746862533 0.0136495387565988 C -0.26214992898759193 0.004519191650021237 -0.2666914078684589 -0.004932349904942235 -0.27233863812901493 -0.013670418545868035 C -0.27971031399361046 -0.025067555980808676 -0.2874321444617741 -0.027323815343651026 -0.29987448022465935 -0.02209519096254864 C -0.3124194929013725 -0.016829708202123317 -0.3247986428711326 -0.011137721338103479 -0.33703299206498083 -0.005187725818822819 C -0.35029674313849224 0.00126775604545859 -0.36331038378088343 0.008239255220261754 -0.3767873869061922 0.015165997791601271 C -0.38626549417279044 0.004882733245333282 -0.39459464120570964 -0.0064028857974687825 -0.4016273018284986 -0.018490968013037623 C -0.4065689573991579 -0.027594987705812923 -0.40618984264040725 -0.03616192815702496 -0.3989945604482861 -0.044133869056308894 C -0.383031045039644 -0.0628635688592254 -0.35859769538788544 -0.07212837721498172 -0.3342291224950543 -0.06869208065093263 C -0.32669795337355956 -0.068311142553315 -0.31972516961129727 -0.06460434935946047 -0.31519703505749697 -0.058574455526775426 C -0.3185616785414088 -0.05692109394000183 -0.3216946407838619 -0.05548624988778594 -0.32473019159524696 -0.05387237942171555 C -0.33700403190979844 -0.04735634450568921 -0.34944636767268356 -0.041116747434585155 -0.3614016462802292 -0.03405573505285481 C -0.3658020450841617 -0.03128594372459792 -0.36953644116742024 -0.027578517280843096 -0.37233805397363284 -0.02319830960085778 C -0.3764687287737788 -0.016424058364020888 -0.3746792334241581 -0.007610879855754371 -0.3682336101618813 -0.0029841212835849396 C -0.3664249168336752 -0.0016124630244941374 -0.36432925469502586 -0.0008279060931907223 -0.3628996761255704 -0.002826156800772195 C -0.36205167101709657 -0.00449998630231474 -0.36165081021554357 -0.006364623876959741 -0.36173600443551635 -0.008239073078489367 C -0.36169651331481323 -0.008897258423542553 -0.3627733045393202 -0.009576505699637472 -0.36320507412567504 -0.010324204251617841 C -0.36613004979909136 -0.015426457046469999 -0.3660115764369817 -0.017169331840170776 -0.36181761941830304 -0.021197426151896126 C -0.35964157133179075 -0.023270259302932195 -0.3571848685181186 -0.025026819539836376 -0.3545196603123535 -0.02641551956747762 C -0.3483090233964319 -0.029693282585842418 -0.3420404661701454 -0.032902594328321655 -0.3356060462369056 -0.035706463898248164 C -0.3257859208887123 -0.039989934123854154 -0.3157183178507791 -0.04370473221133425 -0.3058955597612055 -0.0479882024369403 C -0.29624919534410643 -0.05220058864528054 -0.2951013201023337 -0.05696058506070506 -0.3014409613458857 -0.06547750342569306 C -0.30870818690850044 -0.0754897489728178 -0.31967658134514576 -0.08218112364469399 -0.3319044118563266 -0.08406202482861427 C -0.36319980864291457 -0.08913268472690389 -0.3904881730488189 -0.08048939477566569 -0.4130060100737779 -0.05808739837143609 C -0.4265251370611699 -0.044639355401309755 -0.4302109749934677 -0.02851381444750717 -0.4219573307665009 -0.011082433769119104 C -0.41690510005787285 -0.00041719843787757505 -0.4100678706934605 0.009413457875836528 -0.40392831779480454 0.01955741041379594 C -0.40217491203558287 0.02245342593202987 -0.40005818796589177 0.025133556657086387 -0.3981599814307587 0.02783738205456482 C -0.3989186960610688 0.029033540809572767 -0.3997736580724772 0.030165859189254907 -0.40071637331094523 0.031223087469518407 C -0.41610737941966847 0.04519241323292672 -0.4113552812283846 0.07597969093313373 -0.3873104542029022 0.08579981628132693 C -0.3750181846986893 0.09082045409339257 -0.3625626852289032 0.09177877195578987 -0.3500729601211743 0.08658963869539077 C -0.34690252921422715 0.08531832088099545 -0.3434225313189494 0.08503206742902425 -0.34008697206602756 0.08576822338476442 C -0.32506276511163457 0.0882715654772534 -0.3096354898835605 0.08547980376388498 -0.296441385464862 0.07786999924412635 C -0.29457706611221357 0.07679140569259618 -0.29329698615322075 0.07493122907544963 -0.29295563587746043 0.07280460482859713 C -0.29308464020509073 0.06970586822408686 -0.2962755227579086 0.0702850713277337 -0.2984843927759071 0.07024031472427011 C -0.3036471986225042 0.07014290329320222 -0.30881263721048136 0.07020872182770754 -0.3139754430570785 0.07021135456908772 L -0.31429927024684456 0.06903188643075248 L -0.2971574911202798 0.05874050037550116 C -0.29416143142959783 0.06341624906675886 -0.2914549732907391 0.06751542739575 -0.288877519479511 0.07169885344890792 C -0.28641064080625167 0.07569535486407075 -0.2840753992020031 0.07977873674478053 -0.2814452905631707 0.08423070241872016 C -0.3287398567173112 0.09013330859315699 -0.3305985721317414 0.09054928173123061 -0.335756112495578 0.09605960944001574 C -0.33329867143997594 0.09924053081791862 -0.32961359173279026 0.10123745209115093 -0.32560689447485813 0.10155940618327997 C -0.30826239426201685 0.10382356377026292 -0.2924843751704024 0.09906620009621853 -0.2775514660618361 0.08997534411034419 L -0.2714829971804461 0.10032728321734041 C -0.28674750598092 0.10068816524294028 -0.3019036421706984 0.10299462995876268 -0.3165844897648693 0.10719083999555479 C -0.3195331601107073 0.10795170225443629 -0.32228964033579 0.10824393654763992 -0.32278196297388984 0.11222990699728186 C -0.318922364110498 0.1174137747749206 -0.31217464795301286 0.11573671851572509 -0.30719350126165057 0.11832733603385437 C -0.30990996170725227 0.12276900521560913 -0.31238141040595235 0.1273559507200599 -0.3145967700228084 0.13206761329718392 C -0.3193147758467956 0.14457997757750884 -0.3218578142228047 0.15780716072723489 -0.322115879404696 0.1711769865002437 C -0.32292676374980145 0.1871050718505302 -0.32303733888777053 0.20307001558013987 -0.32405620980191285 0.218979671740765 C -0.32465120935384084 0.22819426657150937 -0.3262703453026716 0.23737726850569113 -0.32774204773421045 0.24652341206055 C -0.32860028500188176 0.2514139402389565 -0.3312912412893362 0.2557930996836561 -0.3352664225988584 0.2587682922199191 C -0.39984493591409487 0.31134150484138584 -0.4719925806974429 0.3478576277849356 -0.554515859260209 0.36241932035889185 C -0.5876481915011835 0.3685578521918916 -0.6214563751135367 0.3702058439594695 -0.6550286596739681 0.36731885206746767 C -0.6630953792629399 0.36656588803272677 -0.6711699970760522 0.36605250346358537 -0.6776702355437972 0.36923022230950203 L -0.7099950342100484 0.3463411687499331 C -0.6783961774528489 0.3335582799708798 -0.6528402913403091 0.30923816443491586 -0.6385082075131339 0.27831113148523773 C -0.6274506937162406 0.25520092764973096 -0.6227775777663631 0.23051897721023712 -0.6219219368177938 0.20504193887391914 C -0.6213306548965378 0.18676054357614724 -0.6225156820286178 0.16846492379143235 -0.6254603412327995 0.15041255523450703 C -0.6292712041247212 0.12604564097612297 -0.6358609124218068 0.102195490303025 -0.6451005919291861 0.07932853796876443 C -0.6464472939345023 0.07613793390076284 -0.6483157520960868 0.07319377768329471 -0.6506293488276329 0.07061679674164056 C -0.6521069493859664 0.0694122421768984 -0.6540579936396511 0.06895751672335032 -0.6559158935191 0.0693846737757009 C -0.656968990071185 0.06966900984476398 -0.658182683847463 0.07222013624219004 -0.6580220866232701 0.07361022369094228 C -0.6575564044909897 0.07733930050055421 -0.6567527451253455 0.08101833323253238 -0.655621026484516 0.08460191895333052 C -0.6432181818423343 0.12563582610532492 -0.6371523457023243 0.16743322825758117 -0.6414305504451698 0.21061281963444928 C -0.6428333197497128 0.2261677072917347 -0.646399978864919 0.24145073083458196 -0.6520273345005261 0.25601971021897735 C -0.6659598018846113 0.29116154216205586 -0.68995987230663 0.3163358152396493 -0.7266286942502321 0.3279330410194861 C -0.7491939206200349 0.33507040290124274 -0.772319920903823 0.3349335003494716 -0.7955354343945383 0.3312318659688926 C -0.8259156684156213 0.32619033988715634 -0.8552199456317662 0.3160293635172347 -0.8822000151483789 0.30118175585514523 C -0.9178578644019794 0.2819627437795927 -0.9494086371024479 0.25780207613338096 -0.9729084866622264 0.2241951324149663 C -0.9741648161048277 0.22224351991473595 -0.9757715236972113 0.22054130248213827 -0.9776474211466091 0.21917449460290067 C -0.9791243890609085 0.21820038029222205 -0.9822257584067989 0.21731841192985085 -0.9829129039070345 0.21803451758526876 C -0.984338561191772 0.21968396101365434 -0.9850532097505044 0.22183074635299876 -0.984900623649095 0.2240055750355911 C -0.9842700129274845 0.22711944620909735 -0.9830094468836125 0.23007151807445508 -0.9811963565271358 0.2326804578833918 C -0.9796377736300499 0.23531319926360444 -0.9780739252502035 0.2379248787127754 -0.9763705415772059 0.24046284140330038 C -0.9590313068471253 0.26626370692938456 -0.919240053626591 0.3049650052185107 -0.9265090525773583 0.30231383464863654 C -0.9871358210808956 0.28015931593414695 -1.049250088464253 0.2768157343812769 -1.1124411470721176 0.2879627613850973 C -1.1454905150676824 0.293715330975801 -1.1777128557286216 0.30348591916743334 -1.2083914066739683 0.3170571863778275 C -1.2153149475985896 0.2948613177171551 -1.22049437999725 0.2721586085067795 -1.2238824569551396 0.24915615344076208 C -1.2246090935760785 0.243516821404347 -1.2257253759212885 0.2379169804886347 -1.2261334508352215 0.23223815733151593 L -1.227713095663349 0.21523854623948274 C -1.2281738254048864 0.20956498856512457 -1.2282396439393917 0.20386510347696413 -1.2285371437153556 0.19818101483708495 L -1.2288925638016843 0.18964566728243543 L -1.2288109488188979 0.18110505424502554 C -1.2288160876226075 0.15830294421161023 -1.2270645198012102 0.1355343229031853 -1.2235717934722588 0.11300130022158256 C -1.2166767250912678 0.06780654269217018 -1.2030065736396818 0.023909753282187973 -1.183022310734239 -0.01720882296087367 C -1.1426010065366772 -0.10008890124408179 -1.078707870609108 -0.16925824715546753 -0.9992885552919578 -0.21611506697732094 C -0.9397920310331139 -0.2513416588612104 -0.873117285873819 -0.27269726719927073 -0.80422611369062 -0.2785926526711483 L -0.795643376791127 -0.27936931137831095 L -0.7870343124778315 -0.2797299969474001 C -0.7812923035275876 -0.2799063906198743 -0.7755502945773438 -0.2803513239131303 -0.7698003874029593 -0.28030920005104687 L -0.7525559313625664 -0.2801459700854737 C -0.7468007587054215 -0.2801854612061769 -0.7410692807206986 -0.2796009926197697 -0.7353220062876943 -0.27935614767140987 C -0.689281623892776 -0.2764115299487999 -0.6439329453148667 -0.26665187537928586 -0.6007573288622645 -0.2503959924890705 C -0.5083191462616172 -0.21301106489005062 -0.44779505467190817 -0.15921889300954536 -0.40646101500256937 -0.11887213135778621 C -0.3918914242044724 -0.10228586066244638 -0.38118669775252767 -0.10752501600906958 -0.398731286310265 -0.12943732251657963 C -0.4305690278211768 -0.16047997613066722 -0.48100182170053063 -0.22099880223761587 -0.5958577971536886 -0.26425737585589026 C -0.6402727273926522 -0.2815452862526676 -0.6870110485532216 -0.29213407668341856 -0.7345400820977711 -0.29567651148734814 C -0.7464084802397698 -0.29671117884977183 -0.7583216349852322 -0.2968059575394595 -0.770229524247934 -0.2970692316774807 C -0.7761821525085949 -0.2971429484361267 -0.7821347807692558 -0.29678226286703757 -0.7880926745126771 -0.2966585240221676 L -0.7970255660157386 -0.2963952498841463 L -0.8059347628463782 -0.29567651148734825 C -0.8535951482200526 -0.29212762320931795 -0.9004500032556026 -0.28142590438260484 -0.9449250785319459 -0.2639309159247439 C -0.967191728561636 -0.25527235045547136 -0.9887513047163591 -0.24489526952263224 -1.0094088131574948 -0.2328935277934166 C -1.092927214043935 -0.18481333235757486 -1.160470290113796 -0.11324376427069924 -1.2036393084826844 -0.027084235878051643 C -1.225127930894387 0.015930153645093315 -1.2400196679856992 0.06193398583956744 -1.2478140761012726 0.10938128082389154 C -1.2517487718896896 0.13309276950968507 -1.2538611457615831 0.1570708534230169 -1.2541326554137833 0.1811050542450255 L -1.2543064163448772 0.19011692798949348 L -1.2540431422068559 0.19912616899258123 C -1.2538061954826367 0.20513408482222667 -1.2538035627412565 0.21115253161739284 -1.2533665276721413 0.21714728374013698 L -1.2519053562061233 0.2351289073669895 C -1.2514972812921903 0.24113419045525458 -1.2504336537745844 0.2470657567848738 -1.2497254463433072 0.25303154875243566 C -1.2218268153435543 0.44982680117876744 -1.0784094081728381 0.6105842462636395 -0.8860596140117715 0.6606667948749037 C -0.8625351545743126 0.6665293718817702 -0.8386372908105313 0.670776239014115 -0.8145332961941526 0.6733776702585703 C -0.8085043184334658 0.6739779352932591 -0.8024490132589767 0.6743043952244054 -0.7964095045327688 0.6747756559314637 C -0.7933844846869045 0.6749783770177398 -0.7903541993582797 0.6752442838971413 -0.7873397104779362 0.6753917174144335 L -0.7782488544920618 0.6755128235179229 C -0.7661382441430835 0.6755865402765691 -0.7539907754147823 0.6761473141905543 -0.7418906960313247 0.6751126468281308 C -0.5937393504661597 0.6680703470489702 -0.45667617907090674 0.5945515768830487 -0.3688602026103719 0.47502430193196793 C -0.36106955528688733 0.46562557901860774 -0.3559161025686709 0.4543255981553393 -0.35392729350180563 0.4422808973862627 C -0.35285313501867877 0.43370342596953 -0.35509623067462004 0.4279403550882444 -0.3593902318657468 0.42541818884600074 C -0.35970175111949065 0.4252525978315174 -0.36002161664081045 0.425103210088044 -0.360348549728144 0.4249706228113646 C -0.3127782840009392 0.3901358433688839 -0.27336846676661886 0.34535530878110593 -0.2448607163437353 0.29374426145604443 C -0.2443183716194115 0.29276751440398546 -0.243768128670947 0.29180393105882757 -0.24328107151560774 0.29082191852400824 C -0.2403028505881757 0.2848222995083321 -0.23370322758604645 0.28152947571691317 -0.22711867218248205 0.28275783167641694 C -0.2072046163825536 0.2864910589535585 -0.18806721928978742 0.28603559469478174 -0.16919836181780346 0.2765972168467192 C -0.1667446468514453 0.28059635100326225 -0.16467004664383778 0.2840505076941013 -0.162532260643105 0.28747043874699757 C -0.14702541391365243 0.31230772092792386 -0.13142642123589243 0.3370870827984855 -0.11601961867888755 0.3619770198070161 C -0.10326661943313753 0.38257822110718015 -0.07040737426670307 0.377078424363916 -0.059378820624992334 0.35874138065073474 C -0.05083294210482214 0.3445482718700082 -0.06332266721255086 0.3259821796567485 -0.06780359304167294 0.31904227337850793 Z M -0.15645326079619415 0.15588602456396838 C -0.15522113783025437 0.1581133237716283 -0.15427071819199778 0.160498587462101 -0.1525936619328021 0.1640896467047111 C -0.1632591571518165 0.16256756556451551 -0.174062127144329 0.1657283101389574 -0.18222516616709594 0.17275926406975145 C -0.19035243880781216 0.17924897157197567 -0.19779519868967355 0.18658905454000857 -0.20548806900265504 0.19361320854241598 C -0.2066577534005607 0.19480444970909483 -0.20775244179796148 0.19606707825420944 -0.20876583202101995 0.1973938251644014 C -0.21139857340123247 0.19511123838775696 -0.2135258284364443 0.1930787620422328 -0.21584527359241168 0.19128059967954747 C -0.22145301273226448 0.1869339436608164 -0.22216385290492213 0.18491199828081306 -0.21742491842053924 0.18015463460676878 C -0.20730824304648965 0.16941502844093131 -0.19661027419749555 0.15923824719688745 -0.18537919034059014 0.1496701221652859 C -0.17203119154291224 0.1388679842822737 -0.16470427228178064 0.14100050480024595 -0.15645326079619415 0.15588602456396838 Z M -0.1944305552057619 0.11167176582467675 C -0.18815673249671505 0.10819917994417633 -0.18516067280603288 0.10879944497886473 -0.18074030002865582 0.11409125515309221 C -0.1759367671525709 0.11931225726557376 -0.17261792350106187 0.12572359779531694 -0.17112816124949948 0.13265998010773222 C -0.18792505125525638 0.13395792160817704 -0.1990720782590767 0.14511021409475794 -0.21139594065985223 0.15434060537378347 C -0.21647449878228242 0.1488118484753369 -0.22135296855981657 0.14347528169764578 -0.22690805287206528 0.13741207829901603 C -0.21635602542017285 0.12833965150280324 -0.20666227165823003 0.11843527843044316 -0.1944384534299024 0.11167176582467675 Z M -0.27484764066435796 0.049731259372413295 C -0.27773402383444656 0.04539028689357716 -0.2809548747771088 0.041281259235652235 -0.284480841374556 0.03744162260958073 C -0.2903202617558678 0.03126521133160165 -0.2958753460681164 0.030717601124517435 -0.3031864688809671 0.035182730505358084 C -0.30688810326154603 0.03744688809234098 -0.31022905207303597 0.04030341248987174 -0.31395964660879716 0.042504384283729546 C -0.3274208532858247 0.05045526325197186 -0.3408794272214718 0.05841667318573496 -0.3545038638640723 0.06606215415387257 C -0.36129136069329915 0.06994146474470381 -0.3693454703812832 0.07095438748075722 -0.37688216559588006 0.06887655468931991 C -0.39224947703218127 0.06446671287746358 -0.3959142530334373 0.05052898001061773 -0.38529114156427924 0.040556155662372195 C -0.3836433653111393 0.03892172610607719 -0.3817985500033596 0.03749875974451555 -0.37979924304515567 0.03632007478160998 C -0.35283470582901744 0.02154337499493636 -0.32584471877953725 0.006816697294486751 -0.298829281896715 -0.007859958319738791 C -0.2980183975516095 -0.008299626130234328 -0.29664937203389896 -0.008949913251146857 -0.2957989965680903 -0.009305333337475574 C -0.28816404656547356 -0.012488317666152715 -0.28671867154773656 -0.0124646229937308 -0.2821087413909843 -0.005785358112131211 C -0.2781754257689465 -0.00007757479983017124 -0.2747370655263889 0.005982995857419404 -0.27119339562862255 0.011946155083601084 C -0.2591775639693319 0.032074340515787 -0.24718279424108291 0.05221481207441392 -0.23520908644387584 0.07236756975948183 C -0.2331792428397319 0.07576907162271657 -0.23124417792527563 0.07933117071014434 -0.22661055309610112 0.079512829865379 C -0.23272641132233507 0.08352249498744285 -0.23884753503132972 0.08754005833364747 -0.2456268440853775 0.09198939126620687 C -0.24702272785853885 0.09045393326680018 -0.24834075294462266 0.08884945739534095 -0.24957595615569628 0.08718200550593863 C -0.2580454851758406 0.0747159750706316 -0.26634125326489066 0.06214990046287655 -0.27485553888849845 0.049731259372413295 Z M -1.1267395655080525 0.31652800536040476 C -1.1132020093309989 0.31352141470420186 -1.0965472873597737 0.32232003639687273 -1.0886227358053335 0.3363420169878854 C -1.0843570279091201 0.34398719048114285 -1.0821226569207065 0.3525983565622495 -1.0821330283031092 0.3613530600999057 C -1.0820520688249227 0.37617907677658496 -1.0849790031469766 0.39086748647110175 -1.0907368271336444 0.4045300187353939 C -1.1025525704480388 0.4035480062005741 -1.114018159158865 0.4021947771311449 -1.1255179735076337 0.40171035271718564 C -1.1406953506872086 0.40102768455804033 -1.1559023054028894 0.40195964115833976 -1.170882740230078 0.40449052761469034 C -1.182407989991562 0.3837798210483632 -1.1923282752131503 0.36221589700179163 -1.200556368326455 0.3399883637994802 C -1.176714332307863 0.32994262731845875 -1.1520066027027225 0.3220900494415985 -1.1267395655080525 0.3165280053604049 Z M -1.108189269743074 0.491700085834235 C -1.1280616536801327 0.4699262142138437 -1.1458030741366023 0.44629919830083525 -1.1611705572784736 0.4211426168445355 C -1.158636104909789 0.42084248432719124 -1.156084978512363 0.420592373896071 -1.1535171780861955 0.42039228555117475 C -1.119999747574708 0.417820097222707 -1.0877170727705403 0.423899097069618 -1.05589776044929 0.43355599245223814 C -1.048694580033028 0.4357385350564345 -1.041625669427157 0.4383765419194076 -1.0344962057695413 0.44080656221334386 C -1.0063732623461095 0.4503897408373179 -0.9904135840992603 0.4705091504649032 -0.9840212880281038 0.49896645204362194 C -0.9788031946125224 0.5221898637584781 -0.9797272868369771 0.5456475894561728 -0.9813885466478912 0.5691158461193884 C -0.9818519091308087 0.575645044742316 -0.9830919303208889 0.5821242212790192 -0.9835158016831032 0.5886481544191864 C -1.030312425140311 0.5637002812071026 -1.072481942904793 0.530908594539184 -1.1081892697430742 0.491700085834235 Z M -0.7437731061181769 0.6409133362991684 C -0.7550201772944455 0.6420401496098993 -0.7663146378155579 0.6415899508338829 -0.7776038328539097 0.6416741985580496 L -0.7860707291326737 0.6416741985580496 L -0.7945218289631564 0.6411845086613301 C -0.8001532627754313 0.6408027611611993 -0.8057978602946072 0.6405842436266418 -0.8114187631413613 0.6400840227644014 C -0.8339078215322953 0.637907950296112 -0.8562227169321404 0.6342039010813718 -0.8782087792159756 0.6289975488123258 C -0.8906168893409189 0.6259883254147427 -0.9028670349830483 0.6223709387583303 -0.9149644816251257 0.618292822360381 C -0.9053655065528703 0.5862233996080106 -0.889084633857635 0.5323469800033385 -0.8863650120118753 0.5213157936202475 C -0.8816932373595907 0.5009531573579324 -0.8792514736908634 0.480142551166112 -0.8790828493542073 0.45925154832311393 C -0.8778448511822216 0.4139986431271781 -0.881887962695563 0.36875573050651306 -0.8911302739100603 0.32443939320794374 C -0.8914346832302917 0.32302807416100704 -0.8916440178937105 0.3215979138134492 -0.8917568663585509 0.32015855572371815 C -0.891793724737874 0.3196557021200975 -0.8913487914446181 0.3191212556199144 -0.8909907386169091 0.3182945748265275 C -0.8824185326829366 0.32301946802354914 -0.8737805082144589 0.3273968393583829 -0.8650766652114759 0.3314266888310284 C -0.8569467598293792 0.3533416280799187 -0.8489300623266315 0.3894917999716188 -0.8471503291536078 0.39564451657717575 L -0.8467817453603781 0.3971557101294178 C -0.8408422808066183 0.4265002455532683 -0.8391836537370843 0.45595272337370746 -0.8447571672389944 0.4855710639011 C -0.8453811269461049 0.488864623367746 -0.8460577414808195 0.49215291735163164 -0.8467633161707164 0.4955096626114028 C -0.8473452209206175 0.4982820766052047 -0.8467558549167241 0.5011717230371948 -0.8451346843820466 0.5034948025856563 C -0.8435135138473693 0.5058178821341179 -0.8410045980923686 0.5073679629458074 -0.8382016412022648 0.5077782374431941 L -0.8380989642884367 0.507794033891475 C -0.8180216785229348 0.5106321290993443 -0.7979865166195164 0.5139783433935947 -0.7778091866815664 0.5159792268425563 C -0.7573448879331734 0.5180090704467002 -0.7367173592192071 0.5195887152748278 -0.71620303838459 0.5164768149634165 C -0.7087920117661273 0.5152788714376739 -0.7015065200113368 0.5134035204694638 -0.694438165394372 0.5108743413063239 C -0.6877229728281337 0.5084451118933331 -0.6828050100244828 0.5026297838074667 -0.6815245689244287 0.49560444130109055 C -0.6790455189553699 0.48542919688706015 -0.6785689220574178 0.4748689541763383 -0.6801213177687755 0.46451176560077884 C -0.6823828426143782 0.4488127287505706 -0.6965706859123442 0.3944650484388405 -0.7310069431655258 0.3524596597175473 C -0.7284900424060425 0.35198839901048934 -0.7259810398706998 0.3515434657172333 -0.7234457099215552 0.3509616298722064 C -0.719135912282147 0.3542683530457535 -0.7153579284015418 0.35730916933989915 -0.7114377764864052 0.3601472645477684 C -0.6925241624109574 0.3738559489145357 -0.6502528668102627 0.42083458610305063 -0.6390795123926402 0.5076176402190009 C -0.6353836549780039 0.5355269632952904 -0.6343785930228651 0.5637268858365745 -0.6360781872191977 0.5918285060064832 C -0.63672584159873 0.60194086564788 -0.6376183409266222 0.6120374288409958 -0.6386161499097227 0.6221287265513509 C -0.6728195460691079 0.6324622894147318 -0.7081126177582614 0.638766516995898 -0.7437783716009378 0.6409133362991684 Z M -0.4005083867419085 0.45201150952752894 C -0.4539497114632056 0.5265490279427294 -0.5287226334364915 0.5831436667493204 -0.6149714995740327 0.6143358120659215 L -0.6150004597292148 0.6143121173934993 C -0.6121942545726368 0.58163823132817 -0.6125310349066374 0.5487704103022981 -0.6160061669364559 0.5161608859977906 C -0.6118964576419441 0.5156343377217483 -0.6089346235892047 0.5151788734629714 -0.6056384313811786 0.514949824962893 C -0.5994093652755953 0.514518055376538 -0.5931829319113925 0.5140152017729174 -0.5869933569265124 0.5131911537209108 C -0.5281542194516305 0.5057881066221126 -0.47106867863943136 0.488126198148733 -0.4183294131445676 0.4610075868237154 C -0.4118607675733855 0.45764294333980376 -0.40555535196777626 0.4541019061834178 -0.39933155134495335 0.45047662130286487 C -0.3997185643278446 0.4509979040961471 -0.40011347553487664 0.45148232851010633 -0.4005083867419085 0.45201150952752894 Z M -0.07691551095858906 0.3528466727004386 C -0.08062502361718349 0.35589886389923403 -0.08548174555542598 0.3571803719075712 -0.09021421646870098 0.35635570571250613 C -0.09494668738197598 0.3555310395174411 -0.09908368695579783 0.35268231255842347 -0.10154217382909847 0.34855530425069187 C -0.112554931022528 0.3301998313478491 -0.1232175336123893 0.31163637187596965 -0.13392489280571418 0.29309923981789227 C -0.14261293936041608 0.27803469364031536 -0.1511614506219665 0.26288063425581115 -0.15978367864216292 0.24777133147477065 C -0.16058918588539917 0.2462287546274376 -0.16149503950015376 0.24474069218455946 -0.16249540226378212 0.24331673305945095 C -0.1639791007825957 0.24093939529713598 -0.1663571765803955 0.239259247742391 -0.1690935955937547 0.2386550068018845 C -0.1718300146071141 0.23805076586137813 -0.17469447139420335 0.23857328631140534 -0.17704129838945692 0.24010478857559142 C -0.182909678925951 0.24333779499049263 -0.1851633055474129 0.24894553413034554 -0.1825858517361847 0.2547954854771782 C -0.18103142259274607 0.25784195628985956 -0.17930870275130162 0.2607995849972377 -0.17742567863096803 0.26365466022159384 C -0.18591626958215413 0.270057487258271 -0.19576798782690985 0.2718345876899145 -0.2058250598993221 0.27264810477640017 C -0.22166099930130123 0.27392761708718355 -0.23701514703070137 0.2708341459654337 -0.25219816657038785 0.26674549860196356 C -0.25751103867565694 0.265315920032508 -0.26276072498780123 0.2636520274802135 -0.2680130440413254 0.26200656411758066 C -0.27009554247307366 0.26135890973804826 -0.2724887043876869 0.2608507906516672 -0.2729757615430263 0.2634256117215153 C -0.27322323923276637 0.26474198241162156 -0.27148036443906554 0.2666164942743329 -0.27029826355934994 0.2679328649644393 C -0.26938007256270446 0.26873028484156775 -0.26834014545576956 0.2693755729438196 -0.2672179561445013 0.26984423520647366 C -0.3173690466961723 0.3745193997423492 -0.400171395845241 0.4412778229204019 -0.5079137040890642 0.4793551615024176 C -0.4882286967892141 0.44996323673372346 -0.48761526804762456 0.4086634227023273 -0.521664512317915 0.3799612761752487 C -0.5175495375406426 0.3787686443300125 -0.5138347394531625 0.3776971185882659 -0.5101225741070626 0.3766124291396183 C -0.4414080240835119 0.35654304159825717 -0.3805074504764324 0.32215680643129946 -0.32609395163019694 0.27592586779476486 C -0.32589314454539786 0.2757164015306183 -0.32567566825430994 0.27552357842232583 -0.3254436645092844 0.2753492974324984 C -0.31354630621210333 0.2681382187920958 -0.3098946939177484 0.25631720999494095 -0.308404562296548 0.24366425492163896 C -0.3071882357788899 0.23331758129740315 -0.30668274943388896 0.22286559801795885 -0.3062852054854769 0.2124478403764573 C -0.30560595820938197 0.19477161474970944 -0.30557436531281945 0.17706642896777924 -0.3046213129331824 0.15940863253069293 C -0.30418927032798715 0.15246559283670502 -0.3028546507358524 0.14560840941504655 -0.3006511389318217 0.13901015231680514 C -0.2952145279816826 0.12244231081112683 -0.285117964788567 0.11803773448203103 -0.26892133981749855 0.12460115874290123 C -0.25331444891559785 0.13091973805541163 -0.24060094079055094 0.14145070357626227 -0.2285482507519374 0.15287416842500506 C -0.22666584066508544 0.15465916708078925 -0.2249598242507076 0.1566258248918081 -0.22258509152575567 0.15912956194439037 C -0.22469795613793697 0.16251612244047636 -0.22701740477293675 0.16576932939631372 -0.22953026328675663 0.16887070505117735 C -0.23649386423741903 0.17652934972621587 -0.24442368127461966 0.17846968012343256 -0.25387259008820307 0.1740150817081128 C -0.2597364036572093 0.17088797544828876 -0.2653455893194657 0.16730520933947163 -0.27064841816291774 0.16329982429064738 C -0.2736892344570637 0.1612278568244198 -0.2764667766131881 0.15877150911668148 -0.27969715028670916 0.1562230154606356 C -0.2809345387354092 0.17039506231032048 -0.2550573237092987 0.1869260454366758 -0.2358198824440847 0.18470927719453673 C -0.23508271485762533 0.19546929121546586 -0.22859037461402076 0.2023749718557637 -0.21928889931772932 0.20756673785754304 C -0.21960839939817012 0.2086531677748053 -0.22002062195621575 0.20971014869287102 -0.2205210222836691 0.21072602751379826 C -0.22747935775157102 0.22217055429358273 -0.22033936312843427 0.23820131655769766 -0.20515107810598732 0.24130268590358822 C -0.19650399724506462 0.24303729819650782 -0.18752184011563644 0.24127967271817802 -0.18016636240776895 0.23641368516053324 C -0.17091731648610176 0.23035764154017008 -0.16300515393320625 0.22247325353592612 -0.15691662327911104 0.2132455610146617 C -0.1562163222050681 0.21233328732784312 -0.15569629387774753 0.21129591123159036 -0.1553843677958271 0.21018894827223483 C -0.15523236867958046 0.2093573357661 -0.15548896567215276 0.2085033182946377 -0.15607414603744307 0.20789319778868937 C -0.15692452150325154 0.20734295484022486 -0.1585094318141398 0.2067953446331407 -0.15910969684882814 0.20721395051259445 C -0.160959081031403 0.2085894135604321 -0.1626673328303201 0.21014509563234213 -0.16420931690230023 0.21185810630728957 C -0.17046997590444568 0.21836624299917534 -0.17687280294112306 0.22483225582897765 -0.18533706647850678 0.22832853638190004 C -0.18962259115747537 0.22997992423093588 -0.19414309607558766 0.23094054263401825 -0.1987298218796485 0.2311745298139099 C -0.20290394812117163 0.23132224098567183 -0.20683165466539521 0.22920127945179097 -0.20899751326247795 0.22562997646718214 C -0.21008838422821818 0.22443393909375536 -0.21064993795588616 0.2228480042965913 -0.2105547626683837 0.2212320072275416 C -0.21045958738088144 0.21961601015849191 -0.20971575216365634 0.2181069571642173 -0.20849202691747704 0.21704723956768884 C -0.19729234508605242 0.2056816950293106 -0.1864006939961127 0.19394493395632256 -0.172950018284606 0.18512788307399042 C -0.15949934257309972 0.17631083219165822 -0.15435496591616404 0.17830118467509898 -0.14815485996576316 0.19320513362848296 C -0.14496134467156518 0.20088484023456327 -0.14774678505183014 0.20805906049564277 -0.1486182224486805 0.21539651072229554 C -0.14949822444013927 0.2188248725626591 -0.1488469567317252 0.22246640041309812 -0.14683322379289643 0.2253772332946818 C -0.13553086504764345 0.24183976514515165 -0.12516576223374587 0.25893942040963286 -0.11439258450591594 0.27576527057057204 C -0.10235305817420337 0.2945656767666707 -0.09019505848038123 0.3132897334627432 -0.07820028875213225 0.33211909981402427 C -0.07633327967260795 0.3350559255507682 -0.07480112447877385 0.3381926490369351 -0.07363248245746323 0.34147059719653966 C -0.07190268980343628 0.3455632349535748 -0.07327420687317576 0.3503080910451229 -0.07692077644134954 0.3528466727004386 Z" fill="#3b3b3c" transform="matrix(1,0,0,1,0,0)" fill-rule="nonzero"></path></g><g clip-path="url(#SvgjsClipPath100043238274-653f-407d-b579-fb311db7a4c8)"><path d=" M -0.6435104161355379 -0.15845803075066392 C -0.6383291810992793 -0.18013865601671525 -0.6488074917925257 -0.1965853914189038 -0.6705460373689418 -0.20108474643768726 C -0.6811111426352848 -0.2031087798281348 -0.6919311476164272 -0.20343760133474853 -0.7025996636730311 -0.20205886074836593 C -0.725658598344044 -0.1994671383471564 -0.7483692595473364 -0.19438707556633594 -0.7703348339031428 -0.18690743410524197 C -0.7710377758516594 -0.18667048738102288 -0.7717459832829366 -0.18645460258784544 -0.7724726199038754 -0.18624661601880863 C -0.775145675359549 -0.18550421372790427 -0.7779773975094681 -0.18670502111607354 -0.779301951044147 -0.18914263153704258 C -0.7839934961836861 -0.1977543285917182 -0.7885928953749175 -0.20605272942214856 -0.7929105912384664 -0.21448803280434994 C -0.7944727282520323 -0.2182952799102965 -0.7980460151604221 -0.22089810730780135 -0.8021488807416326 -0.22121731977217352 C -0.8090703578302116 -0.22190446527240903 -0.8159418128325667 -0.22318924306595284 -0.8228738208866667 -0.22367103473853173 C -0.8624123309347006 -0.226422249480854 -0.900176373292471 -0.2187135827195913 -0.9366688015635989 -0.2038886160076137 C -0.941249771565169 -0.20202726785180336 -0.9452041491182483 -0.20034757885122767 -0.950622330878726 -0.20247220114505932 C -0.9535291432395253 -0.20364770454378084 -0.9568058035321959 -0.20348556669524234 -0.959582365905342 -0.20202883482927292 C -0.9623589282784879 -0.20057210296330352 -0.9643544858686779 -0.1979681557173463 -0.9650392226767706 -0.19490833515970835 C -0.9663251680143063 -0.1907845927374411 -0.9693137605685431 -0.1874079335001438 -0.9732507430416539 -0.18563055453583888 C -0.997400769506054 -0.17161077105577238 -1.0188703538959945 -0.15341533171313312 -1.0366603191840762 -0.13189103748293782 C -1.060173646105825 -0.10344752552871339 -1.072813450512937 -0.06757347265437219 -1.0723234339204368 -0.030672662379281568 C -1.0720278126475087 -0.01734039326361969 -1.070973007658618 -0.004035786337075464 -1.0691641442641817 0.00917651115161705 C -1.067076380349673 0.027416143433730777 -1.0589201475537742 0.05703448396112332 -1.0478389390844591 0.07371553334615083 C -1.0484865934639913 0.07413677196698482 -1.049126349619383 0.07456590881195951 -1.0497503093264935 0.07503190403625715 C -1.0574372068429563 0.08087559108534192 -1.0631939675526787 0.08889121775460668 -1.0662760269700884 0.0980420636993159 C -1.0692900595580173 0.10652842943472207 -1.0703799732593766 0.11557866993841881 -1.0694669095229061 0.12453797294977609 C -1.089273022926246 0.1577105143404558 -1.0909895703061447 0.16244944882483864 -1.0789184510778695 0.17322525929404908 C -1.0712703373683519 0.1800545904343207 -1.061036871623465 0.1714981809486295 -1.054547164121241 0.16429500053236767 C -1.0403145868210069 0.18361336100386527 -1.0187198784109028 0.19617810947814973 -0.994891877187002 0.19900506288909153 C -0.9937496232341566 0.19921652133134482 -0.9925949954628347 0.19935458421032237 -0.9914350877547828 0.19941840328578497 C -0.9850664863560483 0.1993789121650818 -0.9786978849573139 0.19933678830299828 -0.9723319162999597 0.19915512914776373 C -0.9710009538474889 0.19927804325310894 -0.9696818395441772 0.19881955977028043 -0.9687140219985614 0.19789766057536906 C -0.9677462044529457 0.19697576138045775 -0.9672241934082901 0.19568047217781387 -0.9672823183327117 0.19434511064611515 C -0.9671506812637011 0.19139907304165715 -0.9691857903506056 0.190332812782671 -0.9715473593686563 0.18969832211003984 C -0.972942712300169 0.18932447283404968 -0.9744117819903276 0.18923495962712233 -0.9758281968528821 0.18892956162701774 C -0.9875460754607079 0.18678311900988076 -0.998821813354309 0.1826896461734382 -1.0091876628815568 0.17681895127803943 C -1.0298889083541691 0.1642818368254667 -1.0439740747383068 0.1467714739056722 -1.046835864618598 0.12228697906969443 C -1.0503400433956611 0.0923895679559994 -1.0338143257520662 0.07923375927907661 -1.0076975312603564 0.08010519667592708 C -1.0061758067425934 0.08015521876215115 -1.0046514494834504 0.08036847081394832 -1.0031270922243072 0.08045798402087556 C -1.0007692168309426 0.08612647592286982 -0.998936172907297 0.09199926664747271 -0.9976509901534648 0.09800257257861289 C -0.997045459636016 0.10074588909679433 -0.9965636679634371 0.1034944710977364 -0.9961371638598426 0.10624831858143885 C -0.9984059938022799 0.10223042296312063 -1.0019603309631162 0.09909244306427634 -1.0062284615701977 0.09733912175079917 C -1.023317585869158 0.09072567540370491 -1.0394905161678047 0.10392097520133081 -1.0370315357186861 0.12267135931120549 C -1.0350332850111046 0.13783331691985024 -1.0264163224736684 0.1484722248372896 -1.0130735891587508 0.15649155508141743 L -1.0121547624170566 0.15552533899487936 C -1.0084087629799665 0.15161177527435898 -1.007434779199868 0.14580649788837052 -1.009698414709318 0.14088466417951667 C -1.0129689151410464 0.13488199372271453 -1.01469260071393 0.12815916757755708 -1.0147137870386231 0.1213233957245366 C -1.0146590516015923 0.12010161402100905 -1.0138264078041175 0.11905290303982952 -1.0126488451841231 0.11872261108544097 C -1.011471282564129 0.11839231913105236 -1.0102147037489675 0.1188550286477118 -1.0095325520023646 0.11987012248265916 C -1.0084171185359714 0.12192302000184974 -1.0077571195509634 0.12419215936935318 -1.0075974870879083 0.12652305995045654 C -1.0069908701095946 0.1298247657063632 -1.0039363181797134 0.13209671798829525 -1.000599660499303 0.13172798965913712 C -0.9987055058157909 0.1317451558328081 -0.9968977121124656 0.13093688655875357 -0.995647473963123 0.12951385415837813 C -0.9951183183722118 0.1286760981512609 -0.994660370933033 0.12779542999899385 -0.9942784484454124 0.12688111277816538 C -0.9941125857384591 0.13195440541783526 -0.9941125857384591 0.13703559628164574 -0.9942284263591884 0.14213258359373748 C -0.9942284263591884 0.1423405701627743 -0.9942284263591884 0.14254855673181105 -0.9942415900660895 0.14275654330084786 C -0.9942650320439406 0.14465127542906225 -0.9933814136808087 0.1464430775009838 -0.991863951690959 0.147577920429928 C -0.9903464897011092 0.14871276335887224 -0.9883780018843148 0.14905392577142385 -0.9865671489427695 0.14849591950971153 C -0.9834078592865143 0.14753233616455363 -0.9804591889406762 0.1466108766814792 -0.9775289477844994 0.1455999039914776 C -0.9547636330698004 0.1377016798508396 -0.9386749504953208 0.12252392579391358 -0.9307293370098391 0.09981389864819906 C -0.9270654111698241 0.08913238075949786 -0.924618161882461 0.07807162649210875 -0.9234340106452696 0.06684144560241545 C -0.9217253614895117 0.05130827145916084 -0.9220544541620382 0.03556447800548912 -0.920764410885734 0.01997864903463009 C -0.9201141237648216 0.012080424893992081 -0.9198613805923211 0.004158506080932156 -0.9187372000229703 -0.0036923287148620254 C -0.9180102028996512 -0.009292932727913372 -0.9166291181402715 -0.014788996197741822 -0.9146222252456979 -0.020067980099784943 C -0.8941368645662631 -0.07223048506593843 -0.8617673092965483 -0.11441226745970584 -0.8134459740041251 -0.14359357291798303 C -0.7844727115534154 -0.1608876035065876 -0.7522744349808566 -0.17208591343555413 -0.7188226160579015 -0.17650284017064136 C -0.7073650114538802 -0.17822902964979243 -0.6957851424723724 -0.17901270263234448 -0.6841994341667245 -0.17884597999903068 C -0.6663231201950807 -0.17840367944715496 -0.6627425919179915 -0.17252740068652028 -0.6704222985240718 -0.15650453664654593 C -0.6749056953280106 -0.1474192428655884 -0.6802416365839867 -0.13878018383559232 -0.686358282098499 -0.1307036711204616 C -0.69392214808385 -0.1205017982721377 -0.7022732037418845 -0.1108843940102208 -0.7105400116757523 -0.10089050773093353 C -0.7119242940092254 -0.09920516229670562 -0.7141257063398229 -0.0984214028008995 -0.7162635914363348 -0.09885276590264894 C -0.7186330586785261 -0.09933719031660804 -0.7210841409035041 -0.09983214569608803 -0.7235562850595239 -0.10016913659275528 C -0.7405400997032757 -0.10240433402455584 -0.757105308467574 -0.09952148221322296 -0.7734888580766373 -0.09551708257391947 C -0.816502586746552 -0.08501244446687095 -0.8557883536220854 -0.06617781263282949 -0.8924545428243074 -0.041616968296825485 C -0.9024589600691155 -0.034916641484184274 -0.9034857292073983 -0.03212330287977866 -0.8967327475671529 -0.02381963656658781 C -0.8963536328084023 -0.023356274083670414 -0.8959692525668912 -0.022885013376612307 -0.8955480139460572 -0.02239005799713234 C -0.8937649014159608 -0.020275709781877038 -0.8918157390482938 -0.018307179043799693 -0.8897191245302665 -0.016503248270976878 C -0.8860622467531509 -0.013393980700945662 -0.8848037963734093 -0.013765197235555637 -0.880207029923558 -0.017358889219545925 C -0.8767844661292815 -0.02004165268598268 -0.8734698447315938 -0.022887646117992544 -0.8700183207821349 -0.025520387498205233 C -0.8357005368910628 -0.051908354352076747 -0.7985314940852204 -0.07287287396271028 -0.7566366805018961 -0.08473600662194858 C -0.7460984337001806 -0.08802535899767536 -0.7351056971853582 -0.08962481948807066 -0.7240670368872851 -0.08947494110633139 C -0.7157213355976437 -0.08963962613974064 -0.7080020291598945 -0.08506454241933598 -0.7041398173804556 -0.07766446327469731 C -0.7022568430314255 -0.07440198323659636 -0.700636115651835 -0.07099502236803831 -0.6992929404994839 -0.06747575413327436 C -0.6964364161019532 -0.05927476473391183 -0.6939247808252303 -0.05095530197243975 -0.6912815084794968 -0.042680595814431344 C -0.690491686065433 -0.04023741181359397 -0.690244208375693 -0.03727294501947448 -0.686542573995114 -0.03763626332994385 C -0.6824644575971645 -0.03803644001973622 -0.6833016693560722 -0.0411509730725278 -0.6836070673561768 -0.043580993366464094 C -0.6851024644601377 -0.055462555215363835 -0.6864767554606086 -0.06737044447806576 -0.6884355150474868 -0.07917565682693933 C -0.6892074724781148 -0.08366818845688753 -0.6880287421045449 -0.08827682313437851 -0.6851946104084451 -0.09184704108990291 C -0.6757562325603826 -0.10363119150773484 -0.6663678767985443 -0.11547852771869185 -0.6576087462265767 -0.12776289899876414 C -0.6509712232466844 -0.13698819312033603 -0.6461835931965597 -0.14741190530603251 -0.6435104161355379 -0.15845803075066392 Z M -0.9539685451729762 -0.04279380369378072 C -0.9538579700350074 -0.04228305186601944 -0.9537263329659966 -0.04175650358997696 -0.9535736339659444 -0.04121415886565316 C -0.9522873862999606 -0.03542401340123991 -0.9480912270130047 -0.03071466911481069 -0.9424871600138688 -0.0287718231027681 C -0.9406083438698639 -0.028206559366208583 -0.9386571352607429 -0.027918312639861165 -0.9366951289774008 -0.027916182154198943 C -0.9352377028200445 -0.027899893223552685 -0.9337811374416464 -0.02799406391569087 -0.9323379419931489 -0.02819788548188168 C -0.9323932295621334 -0.02580735630864861 -0.9324537826138783 -0.02343525632507698 -0.9325090701828628 -0.021155302289812827 C -0.9326380745104932 -0.0161952175294921 -0.932772344320884 -0.011737986372792109 -0.9328513265622904 -0.00872876297520897 C -0.9329224105795562 -0.006290844457132072 -0.9329697999244 -0.00477965090489002 -0.9329697999244 -0.00477965090489002 C -0.9348629439139722 -0.001970678539752635 -0.9373418608065573 0.0003950704077361755 -0.9402361661337869 0.0021549898905901532 C -0.941262285824678 0.002725538326814103 -0.9423494513532982 0.0031785975601059113 -0.9434770707728288 0.0035055862186392783 C -0.9449976069723989 0.003972702252329541 -0.9465877062669189 0.004172244124583058 -0.9481765141365084 0.004095320287806958 C -0.9488768233436449 0.003995276115358881 -0.9495613361025002 0.003924192098093082 -0.9502326851544545 0.0038768027532492533 C -0.9509487908098724 0.003695143598014594 -0.9516543654997693 0.0035371791152018495 -0.9523573074482861 0.0034029093048109638 C -0.9530023290864382 0.003226515632336724 -0.9534288331900327 0.0029869361667373417 -0.9539369522764136 0.002842135390825673 C -0.9541817972247735 0.002578861252804432 -0.9546609561559722 0.0024788170803562992 -0.9546978145352951 0.002268197769939362 C -0.9551088094517457 0.0018452096732509693 -0.9554027620259635 0.0013226273190857785 -0.955550822742484 0.0007517387349368354 C -0.955761442052901 0.00016990288990981206 -0.9559957560357399 -0.0005093443861849956 -0.9562985212944645 -0.0014834586968637264 L -0.9567039634670171 -0.0027103161800428044 L -0.9568277023118872 -0.0030867981974131986 C -0.9570952772009422 -0.003881127189153788 -0.9574091099517332 -0.004659115941114622 -0.957767590984623 -0.005416774318901418 C -0.9593208470049457 -0.009087778085143494 -0.9623969346186331 -0.011899514419529578 -0.9661923634013037 -0.013117542856023512 C -0.9671171835528606 -0.013438389963139619 -0.9680786360299363 -0.01364182516988055 -0.9690541532815948 -0.013723073373472394 C -0.9699520690108292 -0.01385951656625084 -0.9708615116832461 -0.01390450354616668 -0.971768509644594 -0.01385734318386328 L -0.973958950472931 -0.013662520321727545 L -0.9753411396975427 -0.0135045558389148 C -0.975604413835564 -0.01346769745959181 -0.9758887499046269 -0.013417675373367743 -0.9761651877495492 -0.013354489580242657 C -0.9763862543824942 -0.013329185482116201 -0.9766089654586437 -0.013321262953715607 -0.976831271318743 -0.013330794907820687 C -0.9771878113223594 -0.01330066895213422 -0.9775462570568733 -0.01330066895213422 -0.9779027970604897 -0.013330794907820687 C -0.978500309828794 -0.01340197639326468 -0.9790566013589481 -0.013671777785389416 -0.9794824418886172 -0.014096922649462607 C -0.9810122418958744 -0.016348398241828543 -0.9817248796836674 -0.01905586436129242 -0.9815017545272403 -0.02176873103140231 C -0.9814329328992795 -0.02471569246137867 -0.9809107991894388 -0.02763449093798831 -0.9799537025956753 -0.03042255194816157 L -0.9799273751818731 -0.030454144844723974 C -0.974006339817775 -0.033297505535353655 -0.9635701529866119 -0.0382707540025754 -0.9539685451729762 -0.04279380369378072 Z M -1.0345277986661037 0.05624466154705943 C -1.0271561228015083 0.044621108353420535 -1.0197554867817304 0.03301071886668261 -1.0124970187964841 0.0213108161730175 L -0.9968058801704167 -0.004179385870201557 L -0.9919905961860076 -0.012114468390162503 C -0.9916799325941221 -0.010593473952917154 -0.9911986052751034 -0.009112398881367778 -0.9905557521337918 -0.007699361095545865 C -0.9890073074431069 -0.004568441124519651 -0.9864841311229078 -0.002024938960657141 -0.983365735424431 -0.00045142407582032806 C -0.9818729482724903 0.00026901429916115216 -0.9802839131615493 0.0007700214630459445 -0.97864786287109 0.0010360748039998091 C -0.9771735038165105 0.0013157963250704507 -0.9756699991154263 0.0014104286797856913 -0.9741722025247284 0.0013177781316825454 C -0.9713446382823799 0.001280919752359555 -0.9715183992134739 0.0013177781316825454 -0.9715394611445156 0.0013888621489482889 C -0.9715605230755573 0.0014599461662140323 -0.9715815850065991 0.0014388842351723552 -0.971555257592797 0.0015178664765786998 L -0.9709628907822492 0.0032607412702795324 C -0.9709551892530192 0.0032804180437280284 -0.9709490276600963 0.0033006632776172995 -0.9709444615925875 0.003321294322024382 C -0.9706390635924829 0.004261182994760304 -0.9702178249716489 0.005459080322757104 -0.9696833784714658 0.006720163443878935 C -0.9683778973797823 0.009913649959346293 -0.9661645863458216 0.012654201338865967 -0.9633174098141115 0.014602591136235632 C -0.9627172418900969 0.01504761352965689 -0.9620711748336784 0.01542713379503935 -0.9613902431237958 0.015734669929727108 C -0.9605398676579872 0.016134846619519472 -0.9596815939680379 0.01644814284376478 -0.9588154220539478 0.016806195671473678 C -0.9576965069673575 0.017087898999156415 -0.9565486317255847 0.01733274394751627 -0.9554586767941766 0.01751440310275093 L -0.96689003986706 0.030970344297017838 C -0.9758755861977259 0.04162241592135829 -0.9889050232883984 0.057337249219847786 -0.9989305024642483 0.06950051439643024 C -0.999349108343702 0.07001126622419146 -0.9997545505162548 0.07050358886229124 -1.0001652581715679 0.07099854424177121 C -1.000265302344016 0.0709669513452087 -1.0003653465164641 0.07093535844864612 -1.0004680234302925 0.07090903103484397 C -1.0005707003441207 0.07088270362104188 -1.0006391516200062 0.07085374346585954 -1.0007312975683136 0.07083268153481781 C -1.0035693927761828 0.07017186344838444 -1.0064153862081928 0.06941363393088323 -1.009266645122963 0.06872648843064766 C -1.0131404710303549 0.0676876247920512 -1.0171100968395457 0.06704630968909969 -1.02111398133392 0.06681248544723306 C -1.0291163225356674 0.06641173174379172 -1.0370868138484912 0.06808109175595423 -1.0442557780659896 0.07165936232820463 C -1.0409727495648644 0.06653868034369104 -1.0377818670120467 0.061365343531573135 -1.0345277986661037 0.05624466154705943 Z M -0.7957697483773771 -0.17667660110173564 C -0.816228817720687 -0.1668516389866671 -0.8353809863172246 -0.1545104078346891 -0.8527817629658823 -0.13993932788224828 C -0.8718840377312971 -0.12339119953397468 -0.8884194492308413 -0.10409456241806547 -0.9018455313275258 -0.0826824683453829 C -0.9116693171196522 -0.06701827544956926 -0.9198001476270363 -0.050354176715125515 -0.9261009776634253 -0.03297104560420727 L -0.925837703525404 -0.05938533987188099 C -0.9258230308386854 -0.0608088614769659 -0.9265387182504108 -0.062140643923434574 -0.9277339566493858 -0.06291397064448728 C -0.9289291950483611 -0.06368729736554002 -0.9304373057164536 -0.06379432618787206 -0.9317297787343198 -0.0631975493904289 L -0.9518781485170874 -0.053903972318278204 L -0.9518939449653687 -0.053903972318278204 C -0.9587259088470206 -0.08119760220694294 -0.9574964186224613 -0.10852019225079002 -0.9519439670515928 -0.13569534877734518 C -0.9499141234474487 -0.14561025281522608 -0.9468311832912197 -0.15530400657716914 -0.9445170036180128 -0.16516625578744581 C -0.9438123857958612 -0.1685996588811708 -0.9414777436887344 -0.17147374480850505 -0.9382616100986274 -0.17286702432456788 C -0.9116709221584796 -0.18616236829464183 -0.8840271376662465 -0.19644848886713273 -0.8545641288802865 -0.2009294146962547 C -0.8411371478412019 -0.20296978926591952 -0.8274468926640959 -0.20315408116253442 -0.8139014382629018 -0.20440989880089586 C -0.8092239419692898 -0.20506489653209115 -0.8046530924190038 -0.20264896699959317 -0.8025595883969456 -0.1984151466781516 C -0.7998583957408474 -0.194086919849082 -0.7968412741191238 -0.1899535158821481 -0.7935924712559412 -0.1854804882771668 C -0.7925750421487403 -0.18406445670294663 -0.7922302682124034 -0.18227327263517956 -0.7926493483188433 -0.18058073629236315 C -0.793068428425283 -0.17888819994954674 -0.7942091414424399 -0.17746482956756987 -0.7957697483773771 -0.17668713206725645 Z" fill="#3b3b3c" transform="matrix(1,0,0,1,0,0)" fill-rule="nonzero"></path></g><g clip-path="url(#SvgjsClipPath100043238274-653f-407d-b579-fb311db7a4c8)"><path d=" M -0.8102603569340676 0.21519378963601915 C -0.7860891583223351 0.22962384514096484 -0.7612492434000286 0.2426506494902571 -0.7335896624595143 0.24918248085456468 C -0.7223223720923907 0.2521695264509706 -0.7104988144528168 0.25238001613083166 -0.699132343275291 0.24979590959615433 C -0.6804056538378382 0.24509646623247477 -0.668703118402793 0.23268309062477194 -0.6620106898142922 0.2151069091704722 C -0.6589180962730024 0.20700333120217768 -0.6560659597777719 0.1988084848660357 -0.6534542803286011 0.19052237016204637 C -0.6523300886158936 0.18724824066107948 -0.6518308665122248 0.18379208763568 -0.6519825778970623 0.18033366102062326 C -0.6524064492592765 0.17483123153597885 -0.6556104955189952 0.17265658715592314 -0.6609918189001499 0.17391767027704497 C -0.6672204110964152 0.1752665377978766 -0.673357327326759 0.17700851101070242 -0.6793657209926545 0.17913313095124628 C -0.7176694753333684 0.19341575293890007 -0.757589732881533 0.19722269697468758 -0.7983129765506627 0.19812836000948064 C -0.7992028431371745 0.19707526345739557 -0.7996135507924877 0.19667245402622308 -0.799926847016733 0.1962038260605452 C -0.8046420868286939 0.18911911900639294 -0.8099312642615413 0.1877027041438385 -0.8156996006255872 0.19199143985220501 C -0.8183480702383608 0.1938774768189196 -0.8200517619252568 0.19681648853173134 -0.8203721894105889 0.20005204921826514 C -0.8206926168959208 0.20328760990479894 -0.8195984836741703 0.20650369878807068 -0.8173713914020222 0.20887257758212868 C -0.8153862182246605 0.21137670722125151 -0.8129798840377742 0.21351576993236382 -0.8102603569340676 0.21519378963601915 Z M -0.6700010599032378 0.1906540072310569 C -0.6712595102829794 0.19420294261158366 -0.6719176956280326 0.1961011491467169 -0.6726022083868878 0.19799145745770969 C -0.6780124919232249 0.21291910108351547 -0.6780019609577039 0.2129585922042187 -0.693400865290568 0.21789761503349764 C -0.7088978593907348 0.2227849213118988 -0.7250387924344677 0.22532643718617723 -0.7412877982552561 0.2254377863464267 C -0.7435916016669867 0.22567386660900873 -0.7459192920104597 0.22546835076294397 -0.74814608955071 0.22483225582897776 C -0.7610264323734187 0.21953766205795228 -0.7733779338779623 0.21303840280923697 -0.7850360617702501 0.20542105363266988 C -0.7462952723604207 0.20655049968478095 -0.7083206106922331 0.20337804632162476 -0.6700010599032378 0.1906540072310569 Z" fill="#3b3b3c" transform="matrix(1,0,0,1,0,0)" fill-rule="nonzero"></path></g><g clip-path="url(#SvgjsClipPath100043238274-653f-407d-b579-fb311db7a4c8)"><path d=" M -0.6999563913272975 -0.02849275251646549 C -0.7121885050068942 -0.03131312238301165 -0.7249640599883258 -0.03067502830616531 -0.736854261770978 -0.026649833550316637 C -0.7541540053803554 -0.020565568220645092 -0.7625919415039372 -0.004953411835984023 -0.7576371222263768 0.012804428773550425 C -0.7554345323413467 0.0206011529334319 -0.7523426928916328 0.028118739709736496 -0.7484225273956325 0.03520905791916018 C -0.7403057857204368 0.049920816751788666 -0.7313097084242501 0.06414815117045791 -0.7228849360075696 0.07868088358923186 C -0.7147366014358114 0.09270549692162477 -0.7062855016053287 0.10658794221948614 -0.6989427858959157 0.1210416923968537 C -0.692113454755644 0.13448710262559982 -0.6936193828251256 0.13820190071307986 -0.7078177570886126 0.1440176264219697 C -0.7170509729474324 0.14738078609151095 -0.7264718952252183 0.1502043376783589 -0.7360328464603516 0.1524739917352127 C -0.738710344444028 0.15321905754581294 -0.7416458510829652 0.1531400753044065 -0.7439521325320315 0.1561808915985522 C -0.7425620450832793 0.15693385563329298 -0.7416405856002047 0.1578605805991279 -0.740703329668849 0.15787637704740914 C -0.7349408231876946 0.15812929552146265 -0.7291690532233664 0.15808184187072072 -0.7234114842836128 0.1577342090128777 C -0.7126576689434506 0.15714538117658283 -0.7021983740019536 0.15400578781148633 -0.6928980116869474 0.14857490175111776 C -0.6834201427181817 0.14269599024910284 -0.6808058305276306 0.1366406850746138 -0.683683416856203 0.12574903398467396 C -0.6853870245985381 0.11901065376479592 -0.6877202421278845 0.11244732255077455 -0.690652283289626 0.10614564166761015 C -0.6969024113262509 0.09308987716313577 -0.7038159901906893 0.08034477614152619 -0.7104241710550231 0.06746803805090607 C -0.7186330586785261 0.051503094321296516 -0.7269656851468992 0.03561186735033278 -0.7349086658910009 0.01951002106895211 C -0.7368834218605804 0.015319595510260742 -0.7382334418718071 0.010862400663733618 -0.7389156982716846 0.006280495633383398 C -0.7396156041023005 0.0036945215952742805 -0.7392389616311809 0.0009353593970579666 -0.7378715750900208 -0.0013684166216901272 C -0.7365041885488608 -0.003672192640438221 -0.7342625122559533 -0.005324379973924986 -0.7316572302864383 -0.005948588077704431 C -0.7266787378586688 -0.007406601009952274 -0.7215290907281089 -0.008198922512763218 -0.7163425736777411 -0.008304891612994802 C -0.7120485724866142 -0.008478652544088805 -0.7077150801747842 -0.007251795060909727 -0.7033815878629541 -0.007049073974633335 C -0.6980581847921641 -0.006804229026273534 -0.6931138964801248 -0.012222410786751237 -0.6925031004799154 -0.018535724616501215 C -0.6920614805708726 -0.020860013695733037 -0.6926175172039187 -0.023262880699551514 -0.6940352766678823 -0.02515689917101399 C -0.695453036131846 -0.027050917642476413 -0.6976018468789116 -0.028261520363696002 -0.6999563913272975 -0.02849275251646549 Z" fill="#3b3b3c" transform="matrix(1,0,0,1,0,0)" fill-rule="nonzero"></path></g><g clip-path="url(#SvgjsClipPath100043238274-653f-407d-b579-fb311db7a4c8)"><path d=" M -0.8322332164933226 -0.0017862239555881954 C -0.8473001799410924 0.0077156587813680955 -0.8588605210902966 0.021868481296379583 -0.8651635456770228 0.038528944799608444 C -0.8659344391055612 0.040407580394521525 -0.8664745863553287 0.04237279698410046 -0.8667721506603326 0.04438152888782121 C -0.8672737970381265 0.04610757580102087 -0.8666605963818814 0.04796430774654792 -0.865229656196691 0.049052102406089204 C -0.8637987160115004 0.05013989706563038 -0.8618456152586571 0.05023405656649027 -0.8603166687960512 0.04928895882053774 C -0.8583392224050925 0.04808560903308173 -0.8565093195622915 0.046655086240954824 -0.8548642613976308 0.04502655052597343 C -0.8495698184820231 0.04052719550718986 -0.8444780966526918 0.03576983183314558 -0.8389940963577087 0.031517954504102164 C -0.8314275976309775 0.025649573967608086 -0.823460922214454 0.020349865569239955 -0.8131142485902183 0.019381016741321755 C -0.8099128350718796 0.0110088991522454 -0.8031651189143946 0.003800453253223146 -0.8048211132425482 -0.006838454664216231 C -0.8142604634594901 -0.009154333768707723 -0.8242397050760035 -0.007315093981722587 -0.8322332164933226 -0.0017862239555881398 Z" fill="#3b3b3c" transform="matrix(1,0,0,1,0,0)" fill-rule="nonzero"></path></g><g clip-path="url(#SvgjsClipPath100043238274-653f-407d-b579-fb311db7a4c8)"><path d=" M -0.8189062796266862 0.18036525391718577 C -0.8160971445739992 0.17911996724434515 -0.8132985404868331 0.17711908379538355 -0.8148544906425389 0.17388871012186258 C -0.8162918498093396 0.17185347271965995 -0.8185270913995182 0.1705257296423247 -0.8210019417653355 0.17023709782750762 C -0.8310515725638792 0.16878363898468263 -0.8410419954267702 0.1732349797435635 -0.84668170118793 0.18167899186591185 C -0.857912975915917 0.197277984543672 -0.8563122691567477 0.21468040506687774 -0.8539743948111189 0.2326514977282093 C -0.8446829896411348 0.2325328212505759 -0.8355233360922255 0.23043721170357384 -0.8271046362846685 0.22650404660541262 C -0.8285447458196449 0.2187163976027437 -0.8300506738891265 0.2116869781175758 -0.8310985049584511 0.20459174009790265 C -0.8326965789762402 0.1937659075424683 -0.829613638820011 0.18511208662570927 -0.8189062796266862 0.18036525391718577 Z" fill="#3b3b3c" transform="matrix(1,0,0,1,0,0)" fill-rule="nonzero"></path></g><g clip-path="url(#SvgjsClipPath100043238274-653f-407d-b579-fb311db7a4c8)"><path d=" M -0.8319409822001191 0.053069575442523054 C -0.8324536966433205 0.054026987943977645 -0.8329065203313103 0.055015286633881666 -0.8332968440109285 0.05602877675388196 C -0.8361992414365919 0.06371040917154258 -0.8365473115446334 0.07212318058924533 -0.8342893875112687 0.0800183162103798 C -0.8330904374388397 0.08472367874316578 -0.8307119169268704 0.08904579030205872 -0.8273784413882105 0.09257649259399431 C -0.8197276949373125 0.10058792461398147 -0.8105052018824275 0.09900827978585391 -0.8058215549670291 0.08891171659273833 C -0.8021491199058672 0.08122433801266637 -0.8017922262329 0.07236671290785013 -0.8048342769494494 0.06440879256709903 C -0.8065429583174619 0.05936251435950357 -0.8092265317353617 0.054701147332611666 -0.8127325010900874 0.05068957723481077 C -0.8152238030183963 0.04765528118908574 -0.8190957565588639 0.04610860020689933 -0.8229919708454462 0.046591354827934195 C -0.8268881851320284 0.04707410944896906 -0.830265567884223 0.04951900863408404 -0.8319409822001191 0.053069575442523054 Z" fill="#3b3b3c" transform="matrix(1,0,0,1,0,0)" fill-rule="nonzero"></path></g><g clip-path="url(#SvgjsClipPath100043238274-653f-407d-b579-fb311db7a4c8)"><path d=" M -0.7013649079657113 0.0277610325545386 C -0.7033906928680819 0.034058284428137076 -0.7041669661157676 0.040690591346152105 -0.7036501274837359 0.04728544263019574 C -0.7029956476401489 0.05396100272869425 -0.7002287940515239 0.06025375007375672 -0.6957519033430978 0.06524863706738682 C -0.68859874501306 0.07299152946659232 -0.6793657209926541 0.07167252603510571 -0.6744477600944169 0.06243950201469989 C -0.668655729057949 0.051545218183379815 -0.6712252846450366 0.033176581573636066 -0.6798159197686705 0.0242305263636734 C -0.687421909616105 0.016303342067853055 -0.6969340042228134 0.017675000326943857 -0.7013649079657113 0.0277610325545386 Z" fill="#3b3b3c" transform="matrix(1,0,0,1,0,0)" fill-rule="nonzero"></path></g><g clip-path="url(#SvgjsClipPath100043238274-653f-407d-b579-fb311db7a4c8)"><path d=" M -0.701646611293394 0.5406348498682478 C -0.702897163448995 0.5371912241429297 -0.7048453920703524 0.5360091232632143 -0.7089551013648644 0.5368489677635022 C -0.740442688272208 0.5432675912484606 -0.772196182058953 0.5426831226620534 -0.804012861638823 0.5399529698507728 C -0.8097732997787284 0.5394580144712928 -0.8155600653324357 0.5392473951608758 -0.8213389326620026 0.5391631474367089 C -0.8225131353175774 0.5391631474367089 -0.8246825142148727 0.5403531465405651 -0.8246851469562528 0.5410060664028578 C -0.824727092824976 0.5425961086073949 -0.8240756196661588 0.5441258213932902 -0.8229001483004685 0.5451973906801564 C -0.8196712492434495 0.5471013081343719 -0.8162705979202836 0.5486976221691706 -0.8127430320556082 0.5499652853197214 C -0.7863576979431168 0.5595668931333571 -0.7589376964682018 0.5631105630311233 -0.7293562143201323 0.563824035945161 C -0.724090731559707 0.5635239034278168 -0.7171271306090444 0.5633764699105246 -0.7102319809342674 0.5626761607033883 C -0.6978738928955491 0.5614229758064071 -0.6968049998951829 0.5597195921334095 -0.6996641570340938 0.5472561944394825 C -0.7001880506207885 0.5450103766428422 -0.7008501286732196 0.5427990535327967 -0.701646611293394 0.5406348498682478 Z" fill="#3b3b3c" transform="matrix(1,0,0,1,0,0)" fill-rule="nonzero"></path></g></g></g><defs><clipPath id="SvgjsClipPath1001"><path d=" M -1.2543064163448772 -0.29706923167748084 h 1.1978499386519208 v 0.9728005727299617 h -1.1978499386519208 Z"></path></clipPath><clipPath id="SvgjsClipPath100043238274-653f-407d-b579-fb311db7a4c8"><path d=" M -1.2543064163448772 -0.2970692316774807 L -0.056456477692956364 -0.2970692316774807 L -0.056456477692956364 0.6757313410524806 L -1.2543064163448772 0.6757313410524806 Z"></path></clipPath></defs></svg>